<?xml version="1.0" encoding="UTF-8" standalone="no"?>
<!-- Created with Inkscape (http://www.inkscape.org/) -->

<svg
   xmlns:dc="http://purl.org/dc/elements/1.1/"
   xmlns:cc="http://creativecommons.org/ns#"
   xmlns:rdf="http://www.w3.org/1999/02/22-rdf-syntax-ns#"
   xmlns:svg="http://www.w3.org/2000/svg"
   xmlns="http://www.w3.org/2000/svg"
   xmlns:sodipodi="http://sodipodi.sourceforge.net/DTD/sodipodi-0.dtd"
   xmlns:inkscape="http://www.inkscape.org/namespaces/inkscape"
   width="2960"
   height="2451.4285"
   viewBox="0 0 2960 2451.4284"
   id="svg5013"
   version="1.1"
   inkscape:version="0.91 r13725"
   sodipodi:docname="Big Air Cushion Pillow with Post box.svg">
  <defs
     id="defs5015" />
  <sodipodi:namedview
     id="base"
     pagecolor="#ffffff"
     bordercolor="#666666"
     borderopacity="1.0"
     inkscape:pageopacity="0.0"
     inkscape:pageshadow="2"
     inkscape:zoom="0.12374369"
     inkscape:cx="3404.5614"
     inkscape:cy="800.08572"
     inkscape:document-units="px"
     inkscape:current-layer="layer1"
     showgrid="false"
     inkscape:window-width="1536"
     inkscape:window-height="801"
     inkscape:window-x="-8"
     inkscape:window-y="-8"
     inkscape:window-maximized="1"
     units="px"
     borderlayer="true"
     showguides="false"
     fit-margin-top="0"
     fit-margin-left="0"
     fit-margin-right="0"
     fit-margin-bottom="0" />
  <metadata
     id="metadata5018">
    <rdf:RDF>
      <cc:Work
         rdf:about="">
        <dc:format>image/svg+xml</dc:format>
        <dc:type
           rdf:resource="http://purl.org/dc/dcmitype/StillImage" />
        <dc:title></dc:title>
      </cc:Work>
    </rdf:RDF>
  </metadata>
  <g
     inkscape:label="Big Air Cushion Pillow with Post box"
     inkscape:groupmode="layer"
     id="layer1"
     transform="translate(-28.571428,1421.9233)">
    <path
       style="opacity:1;fill:#ffffff;fill-opacity:1;fill-rule:evenodd;stroke:none;stroke-width:2.5;stroke-linecap:round;stroke-miterlimit:4;stroke-dasharray:60, 2.5;stroke-dashoffset:0;stroke-opacity:1"
       d="m 137.77843,-1421.9233 2741.58597,0 c 60.5007,0 109.207,2.151 109.207,4.8229 l 0,2441.7826 c 0,2.6719 -48.7063,4.8229 -109.207,4.8229 l -2741.58597,0 c -60.500679,0 -109.207002,-2.151 -109.207002,-4.8229 l 0,-2441.7826 c 0,-2.6719 48.706323,-4.8229 109.207002,-4.8229 z"
       id="rect24116"
       inkscape:connector-curvature="0" />
    <g
       id="g23980"
       transform="matrix(0.76481568,0,0,0.76481568,-6926.2239,-1530.8591)">
      <path
         sodipodi:nodetypes="ccccc"
         inkscape:connector-curvature="0"
         id="path13502"
         d="m 11875.336,1220.783 534.371,-107.8277 -31.912,1367.5149 -463.479,-83.4553 z"
         style="fill:#c4b9b2;fill-opacity:1;fill-rule:evenodd;stroke:none;stroke-width:1px;stroke-linecap:butt;stroke-linejoin:miter;stroke-opacity:1" />
      <path
         sodipodi:nodetypes="cccccc"
         inkscape:connector-curvature="0"
         id="path13504"
         d="m 10002.64,2755.313 -63.0416,245.797 2002.4256,-15.8049 -112.164,-316.1106 -904.838,32.3244 z"
         style="fill:#c4b9b2;fill-opacity:1;fill-rule:evenodd;stroke:none;stroke-width:1px;stroke-linecap:butt;stroke-linejoin:miter;stroke-opacity:1" />
      <path
         sodipodi:nodetypes="cccccc"
         inkscape:connector-curvature="0"
         id="path13506"
         d="m 9601.1089,1086.4502 c 8.1647,0.2591 369.6682,161.4039 369.6682,161.4039 l -16.2501,578.9749 9.1317,634.3966 -402.1644,23.5456 z"
         style="opacity:1;fill:#c4b9b2;fill-opacity:1;fill-rule:evenodd;stroke:none;stroke-width:1px;stroke-linecap:butt;stroke-linejoin:miter;stroke-opacity:1" />
      <g
         id="g13508"
         transform="matrix(2.1560361,0.06842665,-0.06842665,2.1560361,23180.448,-9802.7202)">
        <path
           sodipodi:nodetypes="ccccccccc"
           inkscape:connector-curvature="0"
           id="path13510"
           d="m -5641.0488,5299.709 -6.8022,0.1212 22.5084,538.1261 10.2324,-0.2344 z m -15.4306,0.47 -0.75,0.021 0,0 z"
           style="opacity:1;fill:#644006;fill-opacity:1;fill-rule:nonzero;stroke:none;stroke-width:50;stroke-linecap:round;stroke-miterlimit:4;stroke-dasharray:none;stroke-dashoffset:0;stroke-opacity:1" />
        <path
           sodipodi:nodetypes="ccccc"
           inkscape:connector-curvature="0"
           id="path13512"
           d="m -5641.0521,5299.7117 209.7483,-4.386 26.3406,534.4611 -210.4656,7.9531 z"
           style="fill:#c18f63;fill-opacity:1;fill-rule:evenodd;stroke:none;stroke-width:1px;stroke-linecap:butt;stroke-linejoin:miter;stroke-opacity:1" />
        <path
           sodipodi:nodetypes="cccccccc"
           id="path13514"
           d="m -5318.8636,5826.9081 -29.2702,-532.773 -47.5104,0.7916 -28.1153,0.4996 -0.3097,25.1713 29.5189,509.0098 24.4511,-1.1252 z"
           style="opacity:1;fill:#b98250;fill-opacity:1;fill-rule:nonzero;stroke:none;stroke-width:50;stroke-linecap:round;stroke-miterlimit:4;stroke-dasharray:none;stroke-dashoffset:0;stroke-opacity:1"
           inkscape:connector-curvature="0" />
        <path
           sodipodi:nodetypes="ccccc"
           id="path13516"
           d="m -5153.6802,5289.6323 -196.2082,4.2528 28.1964,533.023 201.5459,-7.8018 z"
           style="opacity:1;fill:#91643a;fill-opacity:1;fill-rule:nonzero;stroke:none;stroke-width:50;stroke-linecap:round;stroke-miterlimit:4;stroke-dasharray:none;stroke-dashoffset:0;stroke-opacity:1"
           inkscape:connector-curvature="0" />
        <path
           sodipodi:nodetypes="caccccccc"
           inkscape:connector-curvature="0"
           id="path13518"
           d="m -5917.7765,5308.3891 c 0,0 44.4724,-1.765 66.7135,-2.5094 46.4017,-1.5529 139.2232,-4.0823 139.2232,-4.0823 l 64.0332,-1.9614 22.9645,539.9877 -281.0214,8.7696 -11.6796,-527.7746 -0.044,-1.72 z"
           style="fill:#b98250;fill-opacity:1;fill-rule:evenodd;stroke:none;stroke-width:1px;stroke-linecap:butt;stroke-linejoin:miter;stroke-opacity:1" />
        <path
           sodipodi:nodetypes="cccccccc"
           inkscape:connector-curvature="0"
           id="path13520"
           d="m -5965.8598,5246.9072 3.2672,-7.2777 8.6006,2.9466 29.6887,55.6794 6.5268,10.1336 0.1874,10.6251 -15.2571,-22.1468 z"
           style="fill:#573b23;fill-opacity:1;fill-rule:evenodd;stroke:none;stroke-width:1px;stroke-linecap:butt;stroke-linejoin:miter;stroke-opacity:1" />
        <path
           sodipodi:nodetypes="cccccc"
           inkscape:connector-curvature="0"
           id="path13522"
           d="m -6161.161,5175.9115 c 3.9531,0 195.9596,72.475 195.9596,72.475 l 7.5522,265.3805 9.0981,331.3767 -205.6921,-7.483 z"
           style="opacity:1;fill:#a97444;fill-opacity:1;fill-rule:evenodd;stroke:none;stroke-width:1px;stroke-linecap:butt;stroke-linejoin:miter;stroke-opacity:1" />
        <path
           sodipodi:nodetypes="ccccc"
           inkscape:connector-curvature="0"
           id="path13524"
           d="m -5077.0954,5223.9115 -77.6771,66.2207 33.3857,524.6833 77.027,-3.8784 z"
           style="fill:#7c5631;fill-opacity:1;fill-rule:evenodd;stroke:none;stroke-width:1px;stroke-linecap:butt;stroke-linejoin:miter;stroke-opacity:1" />
        <path
           sodipodi:nodetypes="ccccc"
           inkscape:connector-curvature="0"
           id="path13526"
           d="m -5078.0753,5223.9115 278.0148,-59.3823 51.1314,633.5676 -296.4057,12.8772 z"
           style="fill:#ba8451;fill-opacity:1;fill-rule:evenodd;stroke:none;stroke-width:1px;stroke-linecap:butt;stroke-linejoin:miter;stroke-opacity:1" />
        <path
           sodipodi:nodetypes="cccccccccc"
           inkscape:connector-curvature="0"
           id="path13528"
           d="m -5917.4229,5309.8033 269.1568,-8.8932 494.7828,-9.5922 76.8223,-67.4064 0,0 0,0 -4.6083,-17.663 -576.292,18.3847 -305.0717,14.9382 z"
           style="fill:#75512e;fill-opacity:1;fill-rule:evenodd;stroke:none;stroke-width:1px;stroke-linecap:butt;stroke-linejoin:miter;stroke-opacity:1" />
        <path
           sodipodi:nodetypes="ccccc"
           inkscape:connector-curvature="0"
           id="path13530"
           d="m -5994.8512,4963.7108 32.2195,275.8601 881.5392,-32.7921 46.4923,-255.7959 z"
           style="fill:#a97444;fill-opacity:1;fill-rule:evenodd;stroke:none;stroke-width:1px;stroke-linecap:butt;stroke-linejoin:miter;stroke-opacity:1" />
        <path
           sodipodi:nodetypes="cccccc"
           inkscape:connector-curvature="0"
           id="path13532"
           d="m -5955.2532,5850.4227 -19.799,231.9311 991.3637,-36.7696 -66.4681,-229.1026 -454.7726,14.554 z"
           style="fill:#a97444;fill-opacity:1;fill-rule:evenodd;stroke:none;stroke-width:1px;stroke-linecap:butt;stroke-linejoin:miter;stroke-opacity:1" />
        <path
           sodipodi:nodetypes="ccccc"
           inkscape:connector-curvature="0"
           id="path13534"
           d="m -5044.3378,5810.9057 -5.8409,5.6063 -71.1393,2.7623 0.2065,-4.8603 z"
           style="fill:#4a321d;fill-opacity:1;fill-rule:evenodd;stroke:none;stroke-width:1px;stroke-linecap:butt;stroke-linejoin:miter;stroke-opacity:1" />
        <path
           sodipodi:nodetypes="ccccc"
           inkscape:connector-curvature="0"
           id="path13536"
           d="m -5949.0748,5850.1911 43.3881,-1.7486 -0.084,-5.752 -43.8792,2.1437 z"
           style="fill:#573b23;fill-opacity:1;fill-rule:evenodd;stroke:none;stroke-width:1px;stroke-linecap:butt;stroke-linejoin:miter;stroke-opacity:1" />
        <path
           sodipodi:nodetypes="ccccccccccccc"
           inkscape:connector-curvature="0"
           id="path13538"
           d="m -5431.3038,5295.3254 10.2936,0.1009 4.3823,109.2334 12.196,222.2529 8.7525,159.4999 2.3703,43.1949 -11.6541,0.1794 -3.5395,-67.1205 -6.4584,-135.74 -4.8143,-97.6852 -6.2978,-127.7846 -3.0567,-62.0219 z"
           style="fill:#714e2d;fill-opacity:1;fill-rule:evenodd;stroke:none;stroke-width:1px;stroke-linecap:butt;stroke-linejoin:miter;stroke-opacity:1" />
        <path
           sodipodi:nodetypes="ccccccccc"
           inkscape:connector-curvature="0"
           id="path13540"
           d="m -5905.661,5842.9115 -44,2 -16.25,-598.25 48.3219,72.3527 0.046,1.8045 0.3114,12.2809 0.381,17.295 9.738,363.5964 z"
           style="fill:#9a6a3e;fill-opacity:1;fill-rule:evenodd;stroke:none;stroke-width:1px;stroke-linecap:butt;stroke-linejoin:miter;stroke-opacity:1" />
        <path
           sodipodi:nodetypes="cccc"
           inkscape:connector-curvature="0"
           id="path13542"
           d="m -5084.637,5207.3698 -70.1714,84.4386 78.1371,-67.8627 -4.7585,-17.0294"
           style="fill:#5b3e24;fill-opacity:1;fill-rule:evenodd;stroke:none;stroke-width:1px;stroke-linecap:butt;stroke-linejoin:miter;stroke-opacity:1" />
        <path
           style="fill:#c18f63;fill-opacity:1;fill-rule:evenodd;stroke:none;stroke-width:1px;stroke-linecap:butt;stroke-linejoin:miter;stroke-opacity:1"
           d="m -5641.0521,5299.7117 209.7483,-4.386 26.3406,534.4611 -210.4656,7.9531 z"
           id="path23800"
           inkscape:connector-curvature="0"
           sodipodi:nodetypes="ccccc" />
      </g>
      <path
         sodipodi:nodetypes="ccccccccc"
         inkscape:connector-curvature="0"
         id="path13544"
         d="m 10655.502,1237.6457 -14.674,-0.2042 11.706,1161.7595 22.078,0.1948 z m -33.301,-0.043 -1.619,-0.01 0,0 z"
         style="opacity:1;fill:#644006;fill-opacity:1;fill-rule:nonzero;stroke:none;stroke-width:50;stroke-linecap:round;stroke-miterlimit:4;stroke-dasharray:none;stroke-dashoffset:0;stroke-opacity:1" />
      <path
         sodipodi:nodetypes="cccccccc"
         inkscape:connector-curvature="0"
         id="path13546"
         d="m 9958.8106,1101.5773 7.5422,-15.4674 18.3416,6.9415 60.1996,122.0783 13.379,22.295 -0.323,22.9209 -31.38,-48.7933 z"
         style="fill:#573b23;fill-opacity:1;fill-rule:evenodd;stroke:none;stroke-width:1px;stroke-linecap:butt;stroke-linejoin:miter;stroke-opacity:1" />
    </g>
    <g
       id="g23901"
       transform="matrix(0.76481568,0,0,0.76481568,-6927.3165,-1531.9517)">
      <g
         id="g23637">
        <path
           sodipodi:nodetypes="sccsssassssccssssssacss"
           inkscape:connector-curvature="0"
           id="path18314"
           d="m 10672.03,1304.3403 -4.517,115.8502 5.934,87.4229 3.031,107.7592 c 1.609,57.2125 19.904,80.7732 18.954,81.6703 0,0 -78.679,0.092 -163.939,4.7014 -52.128,2.818 -100.692,6.0931 -151.018,4.2588 -19.353,-0.7053 -42.77,-2.2707 -57.8,-5.8611 -28.352,-6.7723 -75.543,15.2772 -109.271,17.0025 -79.499,4.0665 -51.808,-10.0504 -144.049,-4.2601 -1.303,0.082 6.604,-52.5611 4.471,-109.7565 l 8.29,-57.8925 -1.91,-63.2794 -16.381,-146.9326 c -6.342,-56.8827 -8.724,-103.8138 -7.419,-103.8489 0,0 52.376,14.8163 126.888,-0.6711 32.892,-6.8365 70.874,5.9864 111.703,-1.6667 25.37,-4.7554 52.323,-6.5952 76.509,-11.9404 25.061,-5.5389 59.345,3.7281 76.992,0.9938 20.521,-3.1795 38.379,18.1592 59.084,19.7502 23.914,1.8375 70.927,-12.1183 70.927,-12.1183 l 104.935,-11.2027 c 1.299,-0.1387 -9.184,32.8293 -11.414,90.021 z"
           style="opacity:1;fill:#badae6;fill-opacity:1;fill-rule:evenodd;stroke:none;stroke-width:1.79999995;stroke-linecap:round;stroke-miterlimit:4;stroke-dasharray:none;stroke-dashoffset:0;stroke-opacity:1" />
        <path
           inkscape:connector-curvature="0"
           id="path18316"
           d="M 10686.961,1362.3372 Z"
           style="fill:#37c7ff;fill-opacity:1;fill-rule:evenodd;stroke:#000000;stroke-width:1.30750465px;stroke-linecap:butt;stroke-linejoin:miter;stroke-opacity:1" />
        <path
           inkscape:connector-curvature="0"
           id="path18318"
           d="m 10639.16,1221.1287 c 0,0 -44.637,28.4413 -48.127,28.5352 -3.49,0.094 -51.52,6.2743 -51.52,6.2743 l -28.37,-16.0013 49.613,0.7618 40.919,-10.8789 z"
           style="fill:#cff2fb;fill-opacity:1;fill-rule:evenodd;stroke:none;stroke-width:1px;stroke-linecap:butt;stroke-linejoin:miter;stroke-opacity:1" />
        <path
           style="fill:#cff2fb;fill-opacity:1;fill-rule:evenodd;stroke:none;stroke-width:1px;stroke-linecap:butt;stroke-linejoin:miter;stroke-opacity:1"
           d="m 10202.897,1234.3376 c 0,0 -44.637,28.4412 -48.127,28.535 -3.49,0.094 -51.521,6.2744 -51.521,6.2744 l -28.37,-16.0014 49.614,0.7619 40.919,-10.8788 z"
           id="path18320"
           inkscape:connector-curvature="0" />
        <path
           style="fill:#37c7ff;fill-opacity:1;fill-rule:evenodd;stroke:#000000;stroke-width:1.30750465px;stroke-linecap:butt;stroke-linejoin:miter;stroke-opacity:1"
           d="M 10686.961,1362.3372 Z"
           id="path18324"
           inkscape:connector-curvature="0" />
        <path
           style="fill:#cff2fb;fill-opacity:1;fill-rule:evenodd;stroke:none;stroke-width:1px;stroke-linecap:butt;stroke-linejoin:miter;stroke-opacity:1"
           d="m 10639.16,1221.1287 c 0,0 -44.637,28.4413 -48.127,28.5352 -3.49,0.094 -51.52,6.2743 -51.52,6.2743 l -28.37,-16.0013 49.613,0.7618 40.919,-10.8789 z"
           id="path18326"
           inkscape:connector-curvature="0" />
        <path
           inkscape:connector-curvature="0"
           id="path18328"
           d="m 10202.897,1234.3376 c 0,0 -44.637,28.4412 -48.127,28.535 -3.49,0.094 -51.521,6.2744 -51.521,6.2744 l -28.37,-16.0014 49.614,0.7619 40.919,-10.8788 z"
           style="fill:#cff2fb;fill-opacity:1;fill-rule:evenodd;stroke:none;stroke-width:1px;stroke-linecap:butt;stroke-linejoin:miter;stroke-opacity:1" />
        <path
           inkscape:connector-curvature="0"
           id="path23613"
           d="m 10680.809,1656.1378 c 0.25,-0.058 2.443,-0.5371 2.443,-0.5371 0.455,0 16.676,-15.0793 16.572,-42.4649 -0.147,-38.9442 10.664,-96.513 9.125,-153.7695 -2.049,-76.2513 -16.697,-158.0884 -25.127,-189.1855 -1.742,-6.4252 -6.286,-11.2231 -8.252,-13.1797 -0.377,2.8212 -0.768,5.4584 -1.121,8.5351 -0.638,5.5656 -1.225,11.5453 -1.722,17.92 -0.498,6.3746 -0.905,13.144 -1.184,20.2929 l -4.518,115.8516 5.936,87.4219 3.029,107.7597 c 0.201,7.1516 0.664,13.777 1.317,19.8985 0.652,6.1214 1.495,11.7388 2.459,16.873 0.316,1.6841 0.703,3.003 1.043,4.584 z"
           style="opacity:1;fill:#7ca09b;fill-opacity:1;fill-rule:evenodd;stroke:none;stroke-width:1.79999995;stroke-linecap:round;stroke-miterlimit:4;stroke-dasharray:none;stroke-dashoffset:0;stroke-opacity:1" />
        <path
           inkscape:connector-curvature="0"
           id="path23611"
           d="m 10058.268,1280.6495 c -0.677,0.2157 -1.372,0.3387 -2.032,0.6426 l -1.804,364.6035 c 4.835,8.9307 11.716,15.1111 17.742,19.2734 0.43,-6.9599 0.927,-13.4437 1.183,-21.3418 0.211,-6.4885 0.339,-13.2353 0.348,-20.1484 0.01,-6.9131 -0.1,-13.9931 -0.367,-21.1426 l 8.291,-57.8926 -1.91,-63.2792 -16.381,-146.9317 c -1.585,-14.2207 -2.925,-27.8193 -4.02,-40.2187 -0.449,-5.0931 -0.683,-8.9161 -1.05,-13.5645 z"
           style="opacity:1;fill:#7ca09b;fill-opacity:1;fill-rule:evenodd;stroke:none;stroke-width:1.79999995;stroke-linecap:round;stroke-miterlimit:4;stroke-dasharray:none;stroke-dashoffset:0;stroke-opacity:1" />
        <path
           inkscape:connector-curvature="0"
           id="path23563"
           d="m 10058.268,1280.6495 c 0.367,4.6484 0.601,8.4714 1.05,13.5645 1.095,12.3994 2.435,25.998 4.02,40.2187 l 16.381,146.9317 1.91,63.2792 -8.291,57.8926 c 0.267,7.1495 0.377,14.2295 0.367,21.1426 0,6.9131 -0.137,13.6599 -0.348,20.1484 -0.256,7.8981 -0.753,14.3819 -1.183,21.3418 6.966,4.8119 12.779,6.8946 12.779,6.8946 0,0 74.621,-12.0673 153.164,4.8144 42.501,9.1349 123.874,-12.5534 158.485,-8.4472 31.579,3.7464 51.362,-1.4163 77.048,-1.7832 51.827,-0.7403 103.899,4.1171 155.493,-0.8457 17.164,-1.6511 47.777,-8.7566 51.666,-9.6641 -0.34,-1.581 -0.727,-2.8999 -1.043,-4.584 -0.964,-5.1342 -1.807,-10.7516 -2.459,-16.873 -0.653,-6.1215 -1.116,-12.7469 -1.317,-19.8985 l -3.029,-107.7597 -5.936,-87.4219 4.518,-115.8516 c 0.279,-7.1489 0.686,-13.9183 1.184,-20.2929 0.497,-6.3747 1.084,-12.3544 1.722,-17.92 0.353,-3.0767 0.744,-5.7139 1.121,-8.5351 -0.458,-0.4563 -1.549,-1.6875 -1.549,-1.6875 0,0 -145.294,25.6832 -218.699,25.7851 -30.738,0.043 -60.889,-9.547 -91.611,-10.5429 -42.589,-1.3807 -108.558,16.0345 -162.951,19.5 -61.625,3.9261 -109.371,-5.9356 -109.371,-5.9356 -10.15,-0.1734 -22.583,-6.8292 -33.121,-3.4707 z"
           style="opacity:1;fill:#7dd2f1;fill-opacity:1;fill-rule:evenodd;stroke:none;stroke-width:1.79999995;stroke-linecap:round;stroke-miterlimit:4;stroke-dasharray:none;stroke-dashoffset:0;stroke-opacity:1" />
        <path
           inkscape:connector-curvature="0"
           id="path18330"
           d="m 10054.432,1645.8956 1.804,-364.6035 c -5.273,2.4283 -9.976,7.7724 -13.513,18.418 -13.643,41.0566 -6.287,112.9747 -3.588,167.2382 -0.1,39.7685 -0.189,124.9849 10.799,167.8086 1.066,4.1544 2.677,7.7753 4.498,11.1387 z"
           style="opacity:1;fill:#6b9291;fill-opacity:1;fill-rule:evenodd;stroke:none;stroke-width:1.79999995;stroke-linecap:round;stroke-miterlimit:4;stroke-dasharray:none;stroke-dashoffset:0;stroke-opacity:1" />
        <path
           style="fill:#c2eeff;fill-opacity:1;fill-rule:evenodd;stroke:none;stroke-width:1px;stroke-linecap:butt;stroke-linejoin:miter;stroke-opacity:1"
           d="m 10068.612,1279.8947 c 4.25,3.287 67.578,90.7164 67.578,90.7164 l -77.747,-90.1066 3.782,-0.7909 z"
           id="path18332"
           inkscape:connector-curvature="0"
           sodipodi:nodetypes="ccccc" />
        <path
           inkscape:connector-curvature="0"
           id="path18334"
           d="m 10249.759,1284.1128 c 1.623,1.7203 26.074,47.5207 26.074,47.5207 l -32.892,-46.2394 z"
           style="fill:#c2eeff;fill-opacity:1;fill-rule:evenodd;stroke:none;stroke-width:1px;stroke-linecap:butt;stroke-linejoin:miter;stroke-opacity:1"
           sodipodi:nodetypes="cccc" />
        <path
           style="fill:#c2eeff;fill-opacity:1;fill-rule:evenodd;stroke:none;stroke-width:1px;stroke-linecap:butt;stroke-linejoin:miter;stroke-opacity:1"
           d="m 10265.676,1281.7815 c 1.811,1.7393 28.662,47.6226 28.662,47.6226 l -36.549,-46.4007 z"
           id="path18336"
           inkscape:connector-curvature="0"
           sodipodi:nodetypes="cccc" />
        <path
           inkscape:connector-curvature="0"
           id="path18338"
           d="m 10618.362,1264.0865 c 3.026,3.208 49.496,90.7458 49.496,90.7458 l -63.122,-88.5544 z"
           style="fill:#c2eeff;fill-opacity:1;fill-rule:evenodd;stroke:none;stroke-width:1px;stroke-linecap:butt;stroke-linejoin:miter;stroke-opacity:1"
           sodipodi:nodetypes="cccc" />
        <path
           style="fill:#c2eeff;fill-opacity:1;fill-rule:evenodd;stroke:none;stroke-width:1px;stroke-linecap:butt;stroke-linejoin:miter;stroke-opacity:1"
           d="m 10629.778,1262.3084 c 1.812,1.7393 29.672,48.759 29.672,48.759 l -37.558,-47.2846 z"
           id="path18340"
           inkscape:connector-curvature="0"
           sodipodi:nodetypes="cccc" />
        <path
           style="fill:#c2eeff;fill-opacity:1;fill-rule:evenodd;stroke:none;stroke-width:1px;stroke-linecap:butt;stroke-linejoin:miter;stroke-opacity:1"
           d="m 10401.69,1274.9863 c 1.622,1.7202 26.547,47.2196 26.547,47.2196 l -35.801,-48.7177 z"
           id="path18344"
           inkscape:connector-curvature="0"
           sodipodi:nodetypes="cccc" />
        <path
           inkscape:connector-curvature="0"
           id="path18346"
           d="m 10416.933,1277.2532 c 1.812,1.7394 29.821,47.2016 29.821,47.2016 l -38.603,-48.2757 z"
           style="fill:#c2eeff;fill-opacity:1;fill-rule:evenodd;stroke:none;stroke-width:1px;stroke-linecap:butt;stroke-linejoin:miter;stroke-opacity:1"
           sodipodi:nodetypes="cccc" />
        <path
           style="fill:#d7eef4;fill-opacity:1;fill-rule:evenodd;stroke:none;stroke-width:1px;stroke-linecap:butt;stroke-linejoin:miter;stroke-opacity:1"
           d="m 10676.553,1652.6709 c -3.6,-4.6728 -11.103,-5.5972 -16.973,-5.01 -11.557,1.1561 -19.583,13.2816 -30.802,16.2891 -15.267,4.0928 -33.366,-0.5538 -47.384,1.7729 -18.452,3.0627 -14.303,-16.6226 -7.534,-44.933 -20.09,19.8238 -28.622,31.4192 -47.433,40.0315 -9.896,4.5307 -21.37,4.7257 -32.247,5.1279 -15.418,0.5701 -35.325,7.1454 -46.124,-3.8735 -8.566,-8.7393 -2.778,-11.5493 -2.336,-36.6362 0.21,-11.9349 -15.658,28.1445 -29.243,34.9284 -9.911,4.9495 -22.22,0.1922 -33.189,1.7444 -12.628,1.7869 -24.552,7.6547 -37.265,8.6717 -14.788,1.1829 -29.585,-2.27 -44.399,-3.0677 -17.334,-0.9334 -37.668,7.7279 -52.039,-2.01 -13.873,-9.4003 -21.001,-15.3679 -20.423,-45.938 -5.674,16.1456 -5.004,38.5172 -17.791,44.9668 -13.742,6.9319 -41.258,-2.5928 -55.957,-0.1382 -14.868,2.4829 -37.963,2.8981 -51.798,-7.7503 -6.06,-4.6635 -4.862,-25.8001 -9.089,-21.0613 -14.053,15.7568 -22.512,28.3639 -22.512,28.3639 l -0.257,12.3028 187.687,3.369 417.663,-8.0808 c 0,0 3.326,-14.0318 -0.555,-19.0694 z"
           id="path18350"
           inkscape:connector-curvature="0"
           sodipodi:nodetypes="aaascaaasaaaaacssascccca" />
      </g>
      <g
         id="g23771">
        <path
           style="opacity:1;fill:#badae6;fill-opacity:1;fill-rule:evenodd;stroke:none;stroke-width:1.79999995;stroke-linecap:round;stroke-miterlimit:4;stroke-dasharray:none;stroke-dashoffset:0;stroke-opacity:1"
           d="m 11730.229,1344.8837 -5.695,115.7983 5.045,87.4787 1.935,107.7844 c 1.027,57.226 19.081,80.9715 18.123,81.8589 0,0 -78.677,-0.7079 -163.98,3.034 -52.153,2.2878 -100.748,5.0689 -151.053,2.7229 -19.344,-0.9021 -42.744,-2.7055 -57.738,-6.4485 -28.281,-7.0603 -75.693,14.5081 -109.437,15.8904 -79.537,3.2579 -51.704,-10.5767 -143.998,-5.7247 -1.305,0.069 7.138,-52.4912 5.586,-109.7054 l 8.879,-57.8052 -1.267,-63.2955 -14.886,-147.0916 c -5.763,-56.9443 -7.668,-103.8972 -6.362,-103.919 0,0 52.223,15.3481 126.888,0.6192 32.96,-6.5016 70.809,6.7069 111.714,-0.5306 25.417,-4.4972 52.388,-6.0628 76.626,-11.1618 25.117,-5.2837 59.304,4.3314 76.978,1.7767 20.553,-2.9707 38.193,18.5485 58.88,20.3499 23.895,2.0807 71.047,-11.3964 71.047,-11.3964 l 105.044,-10.135 c 1.3,-0.1254 -9.518,32.7343 -12.329,89.9003 z"
           id="path18554"
           inkscape:connector-curvature="0"
           sodipodi:nodetypes="sccsssassssccssssssacss" />
        <path
           style="fill:#37c7ff;fill-opacity:1;fill-rule:evenodd;stroke:#000000;stroke-width:1.30750465px;stroke-linecap:butt;stroke-linejoin:miter;stroke-opacity:1"
           d="M 11744.57,1403.0294 Z"
           id="path18556"
           inkscape:connector-curvature="0" />
        <path
           style="fill:#cff2fb;fill-opacity:1;fill-rule:evenodd;stroke:none;stroke-width:1px;stroke-linecap:butt;stroke-linejoin:miter;stroke-opacity:1"
           d="m 11698.207,1261.3422 c 0,0 -44.925,27.9859 -48.415,28.0442 -3.491,0.058 -51.582,5.7501 -51.582,5.7501 l -28.206,-16.2889 49.604,1.2663 41.027,-10.4622 z"
           id="path18558"
           inkscape:connector-curvature="0" />
        <path
           inkscape:connector-curvature="0"
           id="path18560"
           d="m 11261.832,1270.114 c 0,0 -44.925,27.9859 -48.415,28.0442 -3.491,0.058 -51.582,5.7501 -51.582,5.7501 l -28.205,-16.289 49.603,1.2663 41.027,-10.4621 z"
           style="fill:#cff2fb;fill-opacity:1;fill-rule:evenodd;stroke:none;stroke-width:1px;stroke-linecap:butt;stroke-linejoin:miter;stroke-opacity:1" />
        <path
           inkscape:connector-curvature="0"
           id="path18564"
           d="M 11744.57,1403.0294 Z"
           style="fill:#37c7ff;fill-opacity:1;fill-rule:evenodd;stroke:#000000;stroke-width:1.30750465px;stroke-linecap:butt;stroke-linejoin:miter;stroke-opacity:1" />
        <path
           inkscape:connector-curvature="0"
           id="path18566"
           d="m 11698.207,1261.3422 c 0,0 -44.925,27.9859 -48.415,28.0442 -3.491,0.058 -51.582,5.7501 -51.582,5.7501 l -28.206,-16.2889 49.604,1.2663 41.027,-10.4622 z"
           style="fill:#cff2fb;fill-opacity:1;fill-rule:evenodd;stroke:none;stroke-width:1px;stroke-linecap:butt;stroke-linejoin:miter;stroke-opacity:1" />
        <path
           style="fill:#cff2fb;fill-opacity:1;fill-rule:evenodd;stroke:none;stroke-width:1px;stroke-linecap:butt;stroke-linejoin:miter;stroke-opacity:1"
           d="m 11261.832,1270.114 c 0,0 -44.925,27.9859 -48.415,28.0442 -3.491,0.058 -51.582,5.7501 -51.582,5.7501 l -28.205,-16.289 49.603,1.2663 41.027,-10.4621 z"
           id="path18568"
           inkscape:connector-curvature="0" />
        <path
           style="opacity:1;fill:#5a878a;fill-opacity:1;fill-rule:evenodd;stroke:none;stroke-width:1.79999995;stroke-linecap:round;stroke-miterlimit:4;stroke-dasharray:none;stroke-dashoffset:0;stroke-opacity:1"
           d="m 11734.773,3144.5273 c 0.399,-0.088 3.106,-0.6503 3.106,-0.6503 0.455,0.01 16.827,-14.9098 17.002,-42.295 0.249,-38.9437 11.646,-96.3987 10.689,-153.6679 -1.274,-76.2682 -15.09,-158.2505 -23.203,-189.4317 -1.561,-5.9982 -5.453,-10.4368 -7.664,-12.7578 -0.548,3.6496 -1.1,7.2881 -1.613,11.3965 -0.695,5.5588 -1.344,11.5312 -1.906,17.9004 -0.563,6.3692 -1.038,13.1335 -1.389,20.2793 l -5.695,115.7988 5.045,87.4785 1.933,107.7852 c 0.129,7.1532 0.523,13.7824 1.113,19.9101 0.59,6.1278 1.377,11.7528 2.288,16.8965 0.09,0.4985 0.204,0.868 0.294,1.3574 z"
           id="path23769"
           transform="translate(0,-1447.6376)"
           inkscape:connector-curvature="0" />
        <path
           style="opacity:1;fill:#7dd2f1;fill-opacity:1;fill-rule:evenodd;stroke:none;stroke-width:1.79999995;stroke-linecap:round;stroke-miterlimit:4;stroke-dasharray:none;stroke-dashoffset:0;stroke-opacity:1"
           d="m 11734.773,3144.5273 c -0.09,-0.4894 -0.206,-0.8589 -0.294,-1.3574 -0.911,-5.1437 -1.698,-10.7687 -2.288,-16.8965 -0.59,-6.1277 -0.984,-12.7569 -1.113,-19.9101 l -1.933,-107.7852 -5.045,-87.4785 5.695,-115.7988 c 0.351,-7.1458 0.826,-13.9101 1.389,-20.2793 0.562,-6.3692 1.211,-12.3416 1.906,-17.9004 0.513,-4.1084 1.065,-7.7469 1.613,-11.3965 -0.717,-0.7533 -1.984,-2.207 -1.984,-2.207 0,0 -145.547,24.2031 -218.949,23.5586 -30.738,-0.2699 -60.789,-10.1644 -91.5,-11.4727 -42.572,-1.8137 -108.715,14.9296 -163.141,17.8418 -61.661,3.2993 -109.307,-7.0488 -109.307,-7.0488 -5.586,-0.1523 -11.858,-2.2914 -18.129,-3.6777 l 6.696,289.9199 2.343,101.4687 c 3.597,-0.5262 75.409,-10.7185 151.819,6.5196 42.405,9.5666 123.995,-11.2938 158.562,-6.836 31.539,4.0675 51.372,-0.8923 77.061,-0.998 51.832,-0.2132 103.853,5.1742 155.494,0.7363 16.885,-1.451 46.309,-7.9368 51.105,-9.002 z"
           id="path23751"
           transform="translate(0,-1447.6376)"
           inkscape:connector-curvature="0" />
        <path
           style="opacity:1;fill:#7ca09b;fill-opacity:1;fill-rule:evenodd;stroke:none;stroke-width:1.79999995;stroke-linecap:round;stroke-miterlimit:4;stroke-dasharray:none;stroke-dashoffset:0;stroke-opacity:1"
           d="m 11110.672,2765.7227 c -3.673,3.0177 -6.977,7.932 -9.67,15.7695 -14.059,40.9158 -7.436,112.9051 -5.289,167.1933 -0.502,39.7654 -1.46,124.9749 9.092,167.9083 2.319,9.4352 7.058,16.6325 12.256,22.2343 l -1.375,-86.8789 -3.696,-210.9433 -1.318,-75.2832 z"
           id="path23749"
           transform="translate(0,-1447.6376)"
           inkscape:connector-curvature="0" />
        <path
           style="opacity:1;fill:#4c7a71;fill-opacity:1;fill-rule:evenodd;stroke:none;stroke-width:1.79999995;stroke-linecap:round;stroke-miterlimit:4;stroke-dasharray:none;stroke-dashoffset:0;stroke-opacity:1"
           d="m 11110.672,2765.7227 1.318,75.2832 3.696,210.9433 1.375,86.8789 c 10.23,11.0272 22.382,15.4278 22.382,15.4278 0,0 1.197,-0.135 1.289,-0.1485 l -2.343,-101.4687 -6.696,-289.9199 c -7.378,-1.6312 -14.746,-2.1517 -21.021,3.0039 z"
           id="path18570"
           transform="translate(0,-1447.6376)"
           inkscape:connector-curvature="0" />
        <path
           inkscape:connector-curvature="0"
           id="path18572"
           d="m 11152.912,1319.9489 c 4.215,3.3301 63.115,86.1103 63.115,86.1103 l -84.679,-88.6993 z"
           style="fill:#c2eeff;fill-opacity:1;fill-rule:evenodd;stroke:none;stroke-width:1px;stroke-linecap:butt;stroke-linejoin:miter;stroke-opacity:1"
           sodipodi:nodetypes="cccc" />
        <path
           style="fill:#c2eeff;fill-opacity:1;fill-rule:evenodd;stroke:none;stroke-width:1px;stroke-linecap:butt;stroke-linejoin:miter;stroke-opacity:1"
           d="m 11308.452,1320.9856 c 1.605,1.7367 25.442,47.7935 25.442,47.7935 l -33.686,-47.3278 z"
           id="path18574"
           inkscape:connector-curvature="0"
           sodipodi:nodetypes="cccc" />
        <path
           inkscape:connector-curvature="0"
           id="path18576"
           d="m 11323.898,1318.1786 c 1.794,1.7577 28.404,47.9269 28.404,47.9269 l -36.076,-46.77 z"
           style="fill:#c2eeff;fill-opacity:1;fill-rule:evenodd;stroke:none;stroke-width:1px;stroke-linecap:butt;stroke-linejoin:miter;stroke-opacity:1"
           sodipodi:nodetypes="cccc" />
        <path
           style="fill:#c2eeff;fill-opacity:1;fill-rule:evenodd;stroke:none;stroke-width:1px;stroke-linecap:butt;stroke-linejoin:miter;stroke-opacity:1"
           d="m 11675.979,1305.2125 c 2.994,3.2385 49.565,90.1181 49.565,90.1181 l -63.26,-87.9085 z"
           id="path18578"
           inkscape:connector-curvature="0"
           sodipodi:nodetypes="cccc" />
        <path
           inkscape:connector-curvature="0"
           id="path18580"
           d="m 11690.058,1303.2623 c 1.794,1.7577 27.523,48.2202 27.523,48.2202 l -36.075,-46.7699 z"
           style="fill:#c2eeff;fill-opacity:1;fill-rule:evenodd;stroke:none;stroke-width:1px;stroke-linecap:butt;stroke-linejoin:miter;stroke-opacity:1"
           sodipodi:nodetypes="cccc" />
        <path
           inkscape:connector-curvature="0"
           id="path18584"
           d="m 11460.313,1312.5983 c 1.606,1.7367 25.953,47.671 25.953,47.671 l -33.458,-48.8701 z"
           style="fill:#c2eeff;fill-opacity:1;fill-rule:evenodd;stroke:none;stroke-width:1px;stroke-linecap:butt;stroke-linejoin:miter;stroke-opacity:1"
           sodipodi:nodetypes="cccc" />
        <path
           style="fill:#c2eeff;fill-opacity:1;fill-rule:evenodd;stroke:none;stroke-width:1px;stroke-linecap:butt;stroke-linejoin:miter;stroke-opacity:1"
           d="m 11475.182,1315.3791 c 1.794,1.7577 29.578,47.3273 29.578,47.3273 l -36.79,-48.5557 z"
           id="path18586"
           inkscape:connector-curvature="0"
           sodipodi:nodetypes="cccc" />
        <path
           sodipodi:nodetypes="aaascaaasaaaaacssasaccca"
           inkscape:connector-curvature="0"
           id="path18590"
           d="m 11731.209,1693.2423 c -3.552,-4.7092 -11.045,-5.7099 -16.921,-5.1824 -11.568,1.0385 -19.717,13.0818 -30.966,15.9751 -15.307,3.9373 -33.359,-0.8931 -47.4,1.291 -18.482,2.8748 -14.132,-16.7673 -7.076,-45.0074 -20.291,19.6185 -28.94,31.1265 -47.838,39.5471 -9.942,4.4298 -21.417,4.5082 -32.297,4.7998 -15.424,0.4133 -35.396,6.7858 -46.083,-4.3424 -8.476,-8.826 -2.66,-11.577 -1.963,-36.658 0.331,-11.9322 -15.943,27.9838 -29.596,34.6291 -9.961,4.8485 -22.221,-0.034 -33.206,1.4069 -12.645,1.6583 -24.629,7.4046 -37.351,8.2923 -14.799,1.0325 -29.56,-2.5708 -44.365,-3.519 -17.324,-1.1097 -37.745,7.3444 -52.017,-2.5391 -13.776,-9.5409 -20.843,-15.5807 -19.954,-46.1433 -5.838,16.0871 -5.396,38.4643 -18.247,44.7835 -13.813,6.7918 -41.23,-3.0122 -55.953,-0.7072 -14.893,2.3316 -37.991,2.5119 -51.717,-8.2766 -6.011,-4.7249 -8.132,-27.4592 -8.874,-21.1527 -2.849,24.1994 -0.417,21.1082 -6.059,29.354 -3.838,5.6106 -17.122,11.0791 -17.122,11.0791 l 187.643,5.2775 417.723,-3.8333 c 0,0 3.468,-13.9972 -0.361,-19.074 z"
           style="fill:#d7eef4;fill-opacity:1;fill-rule:evenodd;stroke:none;stroke-width:1px;stroke-linecap:butt;stroke-linejoin:miter;stroke-opacity:1" />
      </g>
      <g
         transform="matrix(0.05062346,-0.74763601,0.74763601,0.05062346,6542.4625,10275.395)"
         id="g23491">
        <path
           inkscape:connector-curvature="0"
           style="opacity:1;fill:#badae6;fill-opacity:1;fill-rule:evenodd;stroke:none;stroke-width:1.79999995;stroke-linecap:round;stroke-miterlimit:4;stroke-dasharray:none;stroke-dashoffset:0;stroke-opacity:1"
           d="m 10944.854,6193.832 c -0.02,-0.042 -0.05,-0.081 -0.07,-0.123 -0.485,-1.0915 -0.844,-2.2076 -1.099,-3.3438 -0.256,-1.1362 -0.406,-2.2928 -0.473,-3.4687 -0.135,-2.3519 0.06,-4.7793 0.432,-7.2598 0.367,-2.4805 0.903,-5.0151 1.439,-7.584 0.536,-2.5688 1.073,-5.1702 1.445,-7.7871 0.373,-2.6168 0.58,-5.2485 0.455,-7.873 0,0 0.557,-3.9617 1.227,-11.1602 0.335,-3.5992 0.699,-8.0076 1.037,-13.1347 0.338,-5.1272 0.65,-10.9733 0.881,-17.4473 0.231,-6.474 0.382,-13.5752 0.396,-21.2149 0.01,-7.6396 -0.107,-15.8172 -0.419,-24.4414 -0.313,-8.6241 -0.816,-17.6955 -1.565,-27.123 -0.749,-9.4276 -1.742,-19.2119 -3.037,-29.2617 -1.143,-8.8706 -2.587,-17.9581 -4.242,-27.1817 -1.655,-9.2235 -3.522,-18.5817 -5.51,-27.9902 -3.976,-18.8169 -8.44,-37.8365 -12.674,-56.3848 -2.117,-9.2741 -4.175,-18.4299 -6.088,-27.3847 -1.912,-8.9549 -3.678,-17.7083 -5.207,-26.1758 -1.529,-8.4675 -2.82,-16.6488 -3.787,-24.461 -0.483,-3.906 -0.886,-7.7209 -1.195,-11.4316 -0.309,-3.7107 -0.525,-7.3181 -0.637,-10.8125 -0.162,-5.0415 -0.148,-10.0823 0,-15.123 0.145,-5.0408 0.42,-10.0812 0.778,-15.1211 0.714,-10.0798 1.761,-20.1584 2.765,-30.2344 1.005,-10.076 1.967,-20.1493 2.512,-30.2207 0.272,-5.0357 0.44,-10.071 0.457,-15.1055 0.02,-5.0344 -0.117,-10.0684 -0.449,-15.1015 -0.397,-6.0097 -0.95,-12.379 -1.635,-19.0391 -0.685,-6.6601 -1.504,-13.6114 -2.436,-20.7852 -1.863,-14.3475 -4.179,-29.5847 -6.779,-45.166 -2.6,-15.5812 -5.484,-31.506 -8.486,-47.2265 -3.002,-15.7206 -6.122,-31.2367 -9.192,-46.002 -6.139,-29.5306 -12.081,-56.056 -16.488,-75.1992 -4.406,-19.1432 -7.277,-30.9043 -7.277,-30.9043 5.193,-2.7619 10.217,-5.2944 15.217,-7.793 -44.731,-2.1467 -69.939,-8.0721 -69.719,-6.7949 l 23.558,136.5215 c 0,0 22.262,60.406 21.879,91.8906 -0.332,27.2588 -26.774,52.4601 -20.871,79.0742 5.076,22.8876 -4.163,68.5847 5.215,100.9473 9.05,31.2318 13.741,66.3858 22.119,99.2187 13.482,52.8399 -0.101,103.6847 11.639,146.1954 26.597,96.3028 11.619,166.1699 11.619,166.1699 0.101,1.0941 26.713,-1.7516 64.272,-7.1563 z"
           id="path23287"
           transform="translate(0,-1447.6376)" />
        <path
           inkscape:connector-curvature="0"
           style="opacity:1;fill:#badae6;fill-opacity:1;fill-rule:evenodd;stroke:none;stroke-width:1.79999995;stroke-linecap:round;stroke-miterlimit:4;stroke-dasharray:none;stroke-dashoffset:0;stroke-opacity:1"
           d="m 11450.324,6142.7031 c 0.111,-0.1765 0.282,-0.3888 0.389,-0.5625 1.214,-1.9725 2.178,-3.7591 2.924,-5.2636 1.492,-3.0092 2.111,-4.8926 2.111,-4.8926 0,0 -1.382,-6.0451 -3.215,-16.7442 -0.916,-5.3495 -1.946,-11.8633 -2.971,-19.3652 -1.024,-7.5019 -2.043,-15.9927 -2.943,-25.2988 -0.899,-9.3061 -1.678,-19.4275 -2.219,-30.1895 -0.541,-10.762 -0.845,-22.1635 -0.795,-34.0332 0.03,-5.9348 0.139,-11.9863 0.356,-18.1328 0.217,-6.1465 0.537,-12.3885 0.975,-18.7031 0.437,-6.3146 0.994,-12.7034 1.681,-19.1426 0.688,-6.4392 1.508,-12.929 2.475,-19.4492 0.523,-3.5282 0.874,-7.2456 1.076,-11.125 0.202,-3.8794 0.254,-7.9214 0.174,-12.0996 -0.08,-4.1782 -0.292,-8.4915 -0.613,-12.916 -0.322,-4.4246 -0.754,-8.9596 -1.278,-13.5782 -1.047,-9.237 -2.457,-18.8096 -4.074,-28.5078 -1.617,-9.6981 -3.438,-19.522 -5.307,-29.2617 -1.868,-9.7397 -3.784,-19.396 -5.586,-28.7578 -1.801,-9.3619 -3.489,-18.4297 -4.906,-26.9942 -1.417,-8.5644 -2.563,-16.6251 -3.277,-23.9726 -0.357,-3.6738 -0.607,-7.1681 -0.729,-10.459 -0.122,-3.2909 -0.116,-6.3788 0.04,-9.2344 0.28,-5.2108 0.392,-10.168 0.37,-14.9199 -0.02,-4.7519 -0.179,-9.2975 -0.438,-13.6855 -0.259,-4.3881 -0.621,-8.619 -1.053,-12.7383 -0.432,-4.1193 -0.934,-8.1266 -1.474,-12.0723 -1.081,-7.8914 -2.314,-15.5311 -3.444,-23.2988 -1.129,-7.7677 -2.154,-15.6635 -2.818,-24.0684 -0.67,-8.479 -1.225,-16.9712 -1.705,-25.4707 -0.481,-8.4995 -0.886,-17.0064 -1.256,-25.5176 -0.74,-17.0223 -1.338,-34.0599 -2.107,-51.0761 -0.385,-8.5081 -0.812,-17.0106 -1.323,-25.5039 -0.51,-8.4934 -1.104,-16.9775 -1.818,-25.4473 -0.714,-8.4698 -1.55,-16.9259 -2.547,-25.3633 -0.997,-8.4374 -2.155,-16.8557 -3.514,-25.2519 -0.962,-5.9464 -2.565,-13.2971 -4.427,-20.9766 -1.863,-7.6794 -3.986,-15.687 -5.989,-22.9531 -4.005,-14.5322 -7.529,-26.0918 -7.529,-26.0918 -1.105,-0.6196 -2.369,-1.1269 -3.514,-1.7188 -13.458,3.4846 -29.514,6.5087 -48.613,8.2832 l -140.912,13.0918 -114.025,15.1758 -152.151,3.8887 c -18.33,0.4685 -34.74,0.1539 -49.179,-0.5391 -5,2.4986 -10.024,5.0311 -15.217,7.793 0,0 2.871,11.7611 7.277,30.9043 4.407,19.1432 10.349,45.6686 16.488,75.1992 3.07,14.7653 6.19,30.2814 9.192,46.002 3.002,15.7205 5.886,31.6453 8.486,47.2265 2.6,15.5813 4.916,30.8185 6.779,45.166 0.932,7.1738 1.751,14.1251 2.436,20.7852 0.685,6.6601 1.238,13.0294 1.635,19.0391 0.332,5.0331 0.466,10.0671 0.449,15.1015 -0.02,5.0345 -0.185,10.0698 -0.457,15.1055 -0.545,10.0714 -1.507,20.1447 -2.512,30.2207 -1.004,10.076 -2.051,20.1546 -2.765,30.2344 -0.358,5.0399 -0.633,10.0803 -0.778,15.1211 -0.144,5.0407 -0.158,10.0815 0,15.123 0.112,3.4944 0.328,7.1018 0.637,10.8125 0.309,3.7107 0.712,7.5256 1.195,11.4316 0.967,7.8122 2.258,15.9935 3.787,24.461 1.529,8.4675 3.295,17.2209 5.207,26.1758 1.913,8.9548 3.971,18.1106 6.088,27.3847 4.234,18.5483 8.698,37.5679 12.674,56.3848 1.988,9.4085 3.855,18.7667 5.51,27.9902 1.655,9.2236 3.099,18.3111 4.242,27.1817 1.295,10.0498 2.288,19.8341 3.037,29.2617 0.749,9.4275 1.252,18.4989 1.565,27.123 0.312,8.6242 0.434,16.8018 0.419,24.4414 -0.01,7.6397 -0.165,14.7409 -0.396,21.2149 -0.231,6.474 -0.543,12.3201 -0.881,17.4473 -0.338,5.1271 -0.702,9.5355 -1.037,13.1347 -0.67,7.1985 -1.227,11.1602 -1.227,11.1602 0.125,2.6245 -0.08,5.2562 -0.455,7.873 -0.372,2.6169 -0.909,5.2183 -1.445,7.7871 -0.536,2.5689 -1.072,5.1035 -1.439,7.584 -0.368,2.4805 -0.567,4.9079 -0.432,7.2598 0.07,1.1759 0.217,2.3325 0.473,3.4687 0.255,1.1362 0.614,2.2523 1.099,3.3438 0.02,0.042 0.05,0.081 0.07,0.123 21.051,-3.0293 44.575,-6.6381 71.148,-11.3515 l 191.1,-33.8965 82.738,-7.8613 76.543,5.9609 c 30.368,-3.1025 59.603,-3.9297 83.941,-3.9805 z"
           id="path23285"
           transform="translate(0,-1447.6376)" />
        <path
           inkscape:connector-curvature="0"
           style="opacity:1;fill:#badae6;fill-opacity:1;fill-rule:evenodd;stroke:none;stroke-width:1.79999995;stroke-linecap:round;stroke-miterlimit:4;stroke-dasharray:none;stroke-dashoffset:0;stroke-opacity:1"
           d="m 11436.797,5324.4043 c -0.935,-0.8694 -17.511,13.2956 -56.774,23.4609 1.145,0.5919 2.409,1.0992 3.514,1.7188 0,0 3.524,11.5596 7.529,26.0918 2.003,7.2661 4.126,15.2737 5.989,22.9531 1.862,7.6795 3.465,15.0302 4.427,20.9766 1.359,8.3962 2.517,16.8145 3.514,25.2519 0.997,8.4374 1.833,16.8935 2.547,25.3633 0.714,8.4698 1.308,16.9539 1.818,25.4473 0.511,8.4933 0.938,16.9958 1.323,25.5039 0.769,17.0162 1.367,34.0538 2.107,51.0761 0.37,8.5112 0.775,17.0181 1.256,25.5176 0.48,8.4995 1.035,16.9917 1.705,25.4707 0.664,8.4049 1.689,16.3007 2.818,24.0684 1.13,7.7677 2.363,15.4074 3.444,23.2988 0.54,3.9457 1.042,7.953 1.474,12.0723 0.432,4.1193 0.794,8.3502 1.053,12.7383 0.259,4.388 0.416,8.9336 0.438,13.6855 0.02,4.7519 -0.09,9.7091 -0.37,14.9199 -0.153,2.8556 -0.159,5.9435 -0.04,9.2344 0.122,3.2909 0.372,6.7852 0.729,10.459 0.714,7.3475 1.86,15.4082 3.277,23.9726 1.417,8.5645 3.105,17.6323 4.906,26.9942 1.802,9.3618 3.718,19.0181 5.586,28.7578 1.869,9.7397 3.69,19.5636 5.307,29.2617 1.617,9.6982 3.027,19.2708 4.074,28.5078 0.524,4.6186 0.956,9.1536 1.278,13.5782 0.321,4.4245 0.533,8.7378 0.613,12.916 0.08,4.1782 0.03,8.2202 -0.174,12.0996 -0.202,3.8794 -0.553,7.5968 -1.076,11.125 -0.967,6.5202 -1.787,13.01 -2.475,19.4492 -0.687,6.4392 -1.244,12.828 -1.681,19.1426 -0.438,6.3146 -0.758,12.5566 -0.975,18.7031 -0.217,6.1465 -0.33,12.198 -0.356,18.1328 -0.05,11.8697 0.254,23.2712 0.795,34.0332 0.541,10.762 1.32,20.8834 2.219,30.1895 0.9,9.3061 1.92,17.7969 2.943,25.2988 1.025,7.5019 2.055,14.0157 2.971,19.3652 1.833,10.6991 3.215,16.7442 3.215,16.7442 0,0 -0.619,1.8834 -2.111,4.8926 -0.746,1.5045 -1.71,3.2911 -2.924,5.2636 -0.107,0.1737 -0.278,0.386 -0.389,0.5625 35.569,-0.074 60.352,1.5566 60.223,0.5469 -15.394,-120.3488 5.444,-85.2673 -6.613,-189.0703 -5.115,-44.0393 -37.996,-103.9937 -31.524,-141.709 3.431,-19.9947 3.499,-50.806 2.785,-76.2187 -1.857,-66.084 -10.259,-129.4279 -18.363,-197.4786 -13.255,-111.3039 -20.035,-214.3691 -20.035,-214.3691 z"
           id="path23140"
           transform="translate(0,-1447.6376)" />
        <path
           style="fill:#37c7ff;fill-opacity:1;fill-rule:evenodd;stroke:#000000;stroke-width:1.74485624px;stroke-linecap:butt;stroke-linejoin:miter;stroke-opacity:1"
           d="M 10999.036,3916.1962 Z"
           id="path23142"
           inkscape:connector-curvature="0" />
        <path
           inkscape:connector-curvature="0"
           id="path23146"
           d="m 10866.265,4560.1645 c 0,0 47.099,57.08 47.517,61.6441 0.418,4.5639 12.581,66.9622 12.581,66.9622 l -45.835,66.8047 31.143,-78.1925 -24.786,-67.8369 z"
           style="fill:#cff2fb;fill-opacity:1;fill-rule:evenodd;stroke:none;stroke-width:1px;stroke-linecap:butt;stroke-linejoin:miter;stroke-opacity:1"
           sodipodi:nodetypes="csccccc" />
        <path
           inkscape:connector-curvature="0"
           id="path23150"
           d="M 10999.036,3916.1962 Z"
           style="fill:#37c7ff;fill-opacity:1;fill-rule:evenodd;stroke:#000000;stroke-width:1.74485624px;stroke-linecap:butt;stroke-linejoin:miter;stroke-opacity:1" />
        <path
           inkscape:connector-curvature="0"
           transform="matrix(0.09174588,1.3549553,-1.3549553,0.09174588,15113.552,-10024.225)"
           id="path23543"
           d="m 10649.805,3792.9062 c 2.667,-3.0213 5.192,-7.4524 7.504,-14.3378 13.309,-39.6463 7.064,-109.0391 6.207,-163.6075 -0.842,-53.5273 -0.636,-118.7883 -11.129,-160.2168 -1.528,-6.0309 -3.802,-11.1224 -6.395,-15.4336 l 3.813,353.5957 z"
           style="opacity:1;fill:#4c7a71;fill-opacity:1;fill-rule:evenodd;stroke:none;stroke-width:1.79999995;stroke-linecap:round;stroke-miterlimit:4;stroke-dasharray:none;stroke-dashoffset:0;stroke-opacity:1" />
        <path
           inkscape:connector-curvature="0"
           transform="matrix(0.09174588,1.3549553,-1.3549553,0.09174588,15113.552,-10024.225)"
           id="path23300"
           d="m 10649.805,3792.9062 -3.813,-353.5957 c -4.541,-7.5506 -10.087,-12.656 -14.496,-15.8574 -0.587,8.9407 -1.091,18.7897 -1.353,29.2129 -0.132,5.2112 -0.202,10.566 -0.192,16.0215 0.01,5.4562 0.103,11.0147 0.295,16.6309 l -8.187,55.9355 1.66,61.1758 15.396,142.082 c 1.071,9.8787 1.975,19.1817 2.76,27.9688 0.785,8.787 1.45,17.0575 2.039,24.8652 2.042,-0.7649 3.998,-2.2952 5.891,-4.4395 z"
           style="opacity:1;fill:#5ab1c6;fill-opacity:1;fill-rule:evenodd;stroke:none;stroke-width:1.79999995;stroke-linecap:round;stroke-miterlimit:4;stroke-dasharray:none;stroke-dashoffset:0;stroke-opacity:1" />
        <path
           inkscape:connector-curvature="0"
           style="opacity:1;fill:#7dd2f1;fill-opacity:1;fill-rule:evenodd;stroke:none;stroke-width:1.79999995;stroke-linecap:round;stroke-miterlimit:4;stroke-dasharray:none;stroke-dashoffset:0;stroke-opacity:1"
           d="m 11380.021,5347.8652 c -6.728,1.7422 -14.106,3.3699 -22.189,4.7832 -4.042,0.7067 -8.261,1.3598 -12.662,1.9473 -4.401,0.5875 -8.985,1.1091 -13.76,1.5527 l -140.912,13.0918 -114.025,15.1758 -152.151,3.8887 c -9.165,0.2342 -17.85,0.2727 -26.049,0.166 -8.198,-0.1067 -15.911,-0.3586 -23.13,-0.7051 -5,2.4986 -10.024,5.0311 -15.217,7.793 0,0 45.945,188.1678 52.293,284.3223 2.657,40.2649 -7.355,80.5744 -6.059,120.9062 1.797,55.9096 30.195,140.858 39.34,211.8223 10.359,80.3985 1.48,143.7832 1.48,143.7832 0.626,13.1734 -7.091,26.5013 -2.126,37.4394 10.525,-1.5146 21.669,-3.1749 33.503,-5.0449 11.834,-1.87 24.358,-3.9499 37.645,-6.3066 l 191.1,-33.8965 82.738,-7.8613 76.543,5.9609 c 7.592,-0.7756 15.114,-1.4092 22.506,-1.9238 7.391,-0.5147 14.653,-0.9105 21.726,-1.211 14.147,-0.6009 27.539,-0.8203 39.707,-0.8457 3.885,-6.1909 5.426,-10.7187 5.426,-10.7187 0,0 -22.123,-96.7353 -6.656,-201.0586 8.369,-56.4506 -26.933,-161.2175 -24.483,-206.9063 2.235,-41.6868 -6.202,-67.1636 -8.857,-100.7832 -5.357,-67.8322 -3.402,-136.4611 -14.27,-203.6308 -3.849,-23.7854 -17.945,-70.0215 -17.945,-70.0215 -1.106,-0.6199 -2.37,-1.1267 -3.516,-1.7188 z"
           id="path23298"
           transform="translate(0,-1447.6376)" />
        <path
           style="opacity:1;fill:#6b9291;fill-opacity:1;fill-rule:evenodd;stroke:none;stroke-width:1.79999995;stroke-linecap:round;stroke-miterlimit:4;stroke-dasharray:none;stroke-dashoffset:0;stroke-opacity:1"
           d="m 11222.734,3877.8483 c -37.438,0.7762 -75.213,3.7264 -108.467,6.6249 -83.644,7.2907 -145.274,8.9914 -240.012,55.7473 7.248,0.3435 14.991,0.5933 23.222,0.6991 8.231,0.1059 16.951,0.067 26.152,-0.1645 l 152.755,-3.8558 114.477,-15.0469 141.47,-12.9808 c 4.794,-0.4397 9.398,-0.9569 13.815,-1.5394 4.419,-0.5825 8.653,-1.2301 12.713,-1.9308 8.114,-1.4013 15.523,-3.0152 22.276,-4.7426 -38.26,-19.5358 -97.822,-24.0667 -158.401,-22.8105 z"
           id="path23156"
           inkscape:connector-curvature="0" />
        <path
           inkscape:connector-curvature="0"
           style="fill:#c2eeff;fill-opacity:1;fill-rule:evenodd;stroke:none;stroke-width:1px;stroke-linecap:butt;stroke-linejoin:miter;stroke-opacity:1"
           d="m 10945.109,6167.4941 c -0.01,0.062 -0.02,0.1214 -0.03,0.1836 -0.536,2.9706 -1.072,5.9743 -1.439,8.9571 -0.368,2.9827 -0.567,5.9444 -0.432,8.832 0.07,1.4438 0.217,2.8697 0.473,4.2695 0.217,1.194 0.555,2.3588 0.937,3.5117 l 102.947,-104.2968 c 0,0 -73.399,55.3764 -102.457,78.5429 z"
           id="path23158"
           transform="translate(0,-1447.6376)" />
        <path
           inkscape:connector-curvature="0"
           style="fill:#c2eeff;fill-opacity:1;fill-rule:evenodd;stroke:none;stroke-width:1px;stroke-linecap:butt;stroke-linejoin:miter;stroke-opacity:1"
           d="m 10933.67,5942.4805 c 0.675,3.0923 1.426,6.1577 2.078,9.2422 0,0.01 0,0.018 0,0.027 l 57.16,-46.6875 c 0,0 -49.502,30.6415 -59.244,37.418 z"
           id="path23160"
           transform="translate(0,-1447.6376)" />
        <path
           inkscape:connector-curvature="0"
           style="fill:#c2eeff;fill-opacity:1;fill-rule:evenodd;stroke:none;stroke-width:1px;stroke-linecap:butt;stroke-linejoin:miter;stroke-opacity:1"
           d="m 10929.162,5922.4199 c 0.785,3.4487 1.546,6.8639 2.318,10.3184 l 57.647,-51.7637 c 0,0 -50.55,34.2186 -59.965,41.4453 z"
           id="path23162"
           transform="translate(0,-1447.6376)" />
        <path
           inkscape:connector-curvature="0"
           style="fill:#c2eeff;fill-opacity:1;fill-rule:evenodd;stroke:none;stroke-width:1px;stroke-linecap:butt;stroke-linejoin:miter;stroke-opacity:1"
           d="m 10876.18,5461.6895 c 1.309,5.9671 2.421,10.891 3.8,17.3359 l 106.555,-87.0313 c 0,0 -91.95,56.9186 -110.355,69.6954 z"
           id="path23164"
           transform="translate(0,-1447.6376)" />
        <path
           inkscape:connector-curvature="0"
           style="fill:#c2eeff;fill-opacity:1;fill-rule:evenodd;stroke:none;stroke-width:1px;stroke-linecap:butt;stroke-linejoin:miter;stroke-opacity:1"
           d="m 10909.26,5739.3945 c -0.362,3.611 -0.651,7.2225 -0.99,10.834 l 0.255,0.3457 57.307,-46.8066 c 0,0 -42.624,26.3933 -56.572,35.6269 z"
           id="path23170"
           transform="translate(0,-1447.6376)" />
        <path
           inkscape:connector-curvature="0"
           style="fill:#c2eeff;fill-opacity:1;fill-rule:evenodd;stroke:none;stroke-width:1px;stroke-linecap:butt;stroke-linejoin:miter;stroke-opacity:1"
           d="m 10910.75,5721.9609 c -0.378,4.2116 -0.631,8.4225 -1.051,12.6348 0,0.018 0,0.036 0,0.055 l 57.547,-51.6777 c 0,0 -43.249,29.3174 -56.49,38.9882 z"
           id="path23172"
           transform="translate(0,-1447.6376)" />
        <path
           sodipodi:nodetypes="saascaaasaaaaacssasccccs"
           inkscape:connector-curvature="0"
           id="path23176"
           d="m 11378.83,3904.0023 c -6.433,4.865 -5.285,16.0064 -3.691,23.9126 3.013,14.9468 19.057,24.5309 23.947,38.9731 6.654,19.6537 2.099,43.7581 6.333,61.9256 5.575,23.9134 -20.565,20.1435 -58.226,13.673 27.671,24.6406 43.583,34.8357 56.458,58.7505 6.773,12.5808 8,27.5958 9.447,41.8105 2.052,20.1504 12.351,45.6718 -1.17,60.7526 -10.724,11.9607 -14.895,4.6173 -47.797,6.1618 -15.653,0.7347 38.196,18.1293 48.233,35.3516 7.323,12.5654 2.133,29.0936 5.095,43.3325 3.409,16.3915 12.106,31.5161 14.514,48.0844 2.802,19.272 -0.469,38.9497 -0.26,58.4231 0.244,22.7879 13.312,48.6935 1.772,68.3445 -11.141,18.9696 -18.355,28.8126 -58.452,30.6428 21.631,6.0662 50.882,3.2954 60.414,19.5003 10.244,17.4168 0.1,54.2696 4.556,73.3179 4.511,19.2683 13.475,55.1459 -2.739,73.5648 -11.626,13.2075 -60.235,6.9329 -52.075,8.6382 43.045,8.9959 68.72,29.4302 68.72,29.4302 l 8.705,-3.044 -11.473,-246.1631 -47.633,-556.4897 c 0,0 -17.733,5.8547 -24.678,11.1068 z"
           style="fill:#d7eef4;fill-opacity:1;fill-rule:evenodd;stroke:none;stroke-width:1px;stroke-linecap:butt;stroke-linejoin:miter;stroke-opacity:1" />
        <path
           inkscape:connector-curvature="0"
           id="path23192-8"
           d="m 10839.316,3995.3273 c 0,0 32.13,61.6093 31.856,66.1843 -0.273,4.5747 2.355,68.093 2.355,68.093 l -24.147,35.287 6.629,-64.8009 -9.582,-54.7511 z"
           style="fill:#cff2fb;fill-opacity:1;fill-rule:evenodd;stroke:none;stroke-width:1px;stroke-linecap:butt;stroke-linejoin:miter;stroke-opacity:1"
           inkscape:transform-center-x="-0.152658"
           inkscape:transform-center-y="74.175283" />
      </g>
      <g
         id="g23860">
        <g
           id="g18512"
           transform="matrix(0.00996149,0.59625983,-0.59625983,0.00996149,11786.077,-189.88255)">
          <path
             style="opacity:1;fill:#badae6;fill-opacity:1;fill-rule:evenodd;stroke:none;stroke-width:1.79999995;stroke-linecap:round;stroke-miterlimit:4;stroke-dasharray:none;stroke-dashoffset:0;stroke-opacity:1"
             d="m 3642.6922,138.80854 193.994,12.79234 146.8128,-6.00823 180.7713,-0.22536 c 95.9768,-0.11966 136.2955,-29.72418 137.7565,-28.09282 0,0 -3.3906,131.89356 0.4938,275.02106 2.375,87.5074 5.6766,169.06234 0.3342,253.33988 -2.0544,32.40892 -5.7336,71.59192 -12.4293,96.62578 -12.6299,47.22053 22.2049,127.31834 23.5772,183.93413 3.2345,133.44638 -19.1817,86.39268 -13.6318,241.27488 0.079,2.1886 -87.8097,-13.4385 -183.7814,-12.4393 l -96.6706,-16.5063 -106.1601,0.3517 -247.0386,20.8381 c -95.6372,8.0672 -174.4143,9.9458 -174.4143,7.7558 0,0 27.1963,-87.1292 4.5925,-212.73024 -9.9778,-55.44367 13.2285,-118.53469 2.2395,-187.3206 -6.8283,-42.74115 -8.6977,-88.00528 -16.5681,-128.78813 -8.1554,-42.25955 8.9235,-99.31023 5.1352,-129.01568 -4.4051,-34.54212 32.1693,-63.51578 35.7691,-98.15109 4.1579,-40.00475 -17.1177,-119.44033 -17.1177,-119.44033 L 3492.3059,115.6186 c -0.1739,-2.18304 54.6174,16.87476 150.3863,23.18994 z"
             id="path18514"
             inkscape:connector-curvature="0"
             sodipodi:nodetypes="sccsssassssccssssssacss" />
          <path
             style="fill:#37c7ff;fill-opacity:1;fill-rule:evenodd;stroke:#000000;stroke-width:2.19253755px;stroke-linecap:butt;stroke-linejoin:miter;stroke-opacity:1"
             d="M 3740.5841,116.39248 Z"
             id="path18516"
             inkscape:connector-curvature="0" />
          <path
             style="fill:#cff2fb;fill-opacity:1;fill-rule:evenodd;stroke:none;stroke-width:1px;stroke-linecap:butt;stroke-linejoin:miter;stroke-opacity:1"
             d="m 3501.725,190.15778 c 0,0 45.6643,76.10704 45.6643,81.96142 0,5.85439 8.1961,86.64495 8.1961,86.64495 l -28.101,46.83512 3.5126,-83.13232 -16.3923,-69.08179 z"
             id="path18518"
             inkscape:connector-curvature="0" />
          <path
             inkscape:connector-curvature="0"
             id="path18520"
             d="m 3504.2089,922.05283 c 0,0 45.6642,76.10703 45.6642,81.96147 0,5.8543 8.1962,86.6449 8.1962,86.6449 l -28.1012,46.8351 3.5127,-83.1323 -16.3922,-69.08181 z"
             style="fill:#cff2fb;fill-opacity:1;fill-rule:evenodd;stroke:none;stroke-width:1px;stroke-linecap:butt;stroke-linejoin:miter;stroke-opacity:1" />
          <path
             inkscape:connector-curvature="0"
             id="path18524"
             d="M 3740.5841,116.39248 Z"
             style="fill:#37c7ff;fill-opacity:1;fill-rule:evenodd;stroke:#000000;stroke-width:2.19253755px;stroke-linecap:butt;stroke-linejoin:miter;stroke-opacity:1" />
          <path
             inkscape:connector-curvature="0"
             id="path18526"
             d="m 3501.725,190.15778 c 0,0 45.6643,76.10704 45.6643,81.96142 0,5.85439 8.1961,86.64495 8.1961,86.64495 l -28.101,46.83512 3.5126,-83.13232 -16.3923,-69.08179 z"
             style="fill:#cff2fb;fill-opacity:1;fill-rule:evenodd;stroke:none;stroke-width:1px;stroke-linecap:butt;stroke-linejoin:miter;stroke-opacity:1" />
          <path
             style="fill:#cff2fb;fill-opacity:1;fill-rule:evenodd;stroke:none;stroke-width:1px;stroke-linecap:butt;stroke-linejoin:miter;stroke-opacity:1"
             d="m 3504.2089,922.05283 c 0,0 45.6642,76.10703 45.6642,81.96147 0,5.8543 8.1962,86.6449 8.1962,86.6449 l -28.1012,46.8351 3.5127,-83.1323 -16.3922,-69.08181 z"
             id="path18528"
             inkscape:connector-curvature="0" />
          <path
             style="opacity:1;fill:#5a878a;fill-opacity:1;fill-rule:evenodd;stroke:none;stroke-width:1.79999995;stroke-linecap:round;stroke-miterlimit:4;stroke-dasharray:none;stroke-dashoffset:0;stroke-opacity:1"
             d="m 11745.135,3782.9277 c 0.188,-0.042 2.113,-0.4414 2.113,-0.4414 0.455,0.01 16.827,-14.9097 17.002,-42.2949 0.249,-38.9437 11.646,-96.4007 10.689,-153.6699 -1.274,-76.2682 -15.089,-158.2504 -23.203,-189.4317 -1.551,-5.9637 -5.402,-10.3748 -7.629,-12.7187 -0.408,2.8331 -0.828,5.4841 -1.214,8.5762 -0.695,5.5588 -1.342,11.5311 -1.905,17.9004 -0.562,6.3692 -1.039,13.1354 -1.39,20.2812 l -5.696,115.7988 5.045,87.4785 1.936,107.7833 c 0.128,7.1532 0.523,13.7843 1.113,19.9121 0.59,6.1277 1.376,11.7527 2.287,16.8964 0.256,1.443 0.578,2.5621 0.852,3.9297 z"
             id="path23798"
             transform="matrix(0.02801122,-1.6766532,1.6766532,0.02801122,-2438.9614,19725.933)"
             inkscape:connector-curvature="0" />
          <path
             style="opacity:1;fill:#4c7a71;fill-opacity:1;fill-rule:evenodd;stroke:none;stroke-width:1.79999995;stroke-linecap:round;stroke-miterlimit:4;stroke-dasharray:none;stroke-dashoffset:0;stroke-opacity:1"
             d="m 11128.504,3779.5 c 2.722,2.6238 5.479,4.9637 8.094,6.748 0.496,-6.9037 1.053,-13.3169 1.386,-21.1425 0.277,-6.4861 0.473,-13.2319 0.553,-20.1446 0.08,-6.9126 0.04,-13.9908 -0.15,-21.1425 l 8.879,-57.8067 -1.268,-63.2949 -14.887,-147.0918 c -1.44,-14.2361 -2.639,-27.8479 -3.607,-40.2578 -0.425,-5.4415 -0.638,-9.5595 -0.975,-14.4902 -1.585,0.4411 -3.13,1.1115 -4.623,2.0527 l 6.598,376.5703 z"
             id="path23843"
             transform="matrix(0.02801122,-1.6766532,1.6766532,0.02801122,-2438.9614,19725.933)"
             inkscape:connector-curvature="0" />
          <path
             style="opacity:1;fill:#7ca09b;fill-opacity:1;fill-rule:evenodd;stroke:none;stroke-width:1.79999995;stroke-linecap:round;stroke-miterlimit:4;stroke-dasharray:none;stroke-dashoffset:0;stroke-opacity:1"
             d="m 11128.504,3779.5 -6.598,-376.5703 c -4.428,2.7915 -8.394,8.0219 -11.537,17.1699 -14.059,40.9158 -7.434,112.9052 -5.287,167.1934 -0.502,39.7654 -1.46,124.9749 9.092,167.9082 2.635,10.7205 8.328,18.5147 14.33,24.2988 z"
             id="path23796"
             transform="matrix(0.02801122,-1.6766532,1.6766532,0.02801122,-2438.9614,19725.933)"
             inkscape:connector-curvature="0" />
          <path
             style="opacity:1;fill:#7dd2f1;fill-opacity:1;fill-rule:evenodd;stroke:none;stroke-width:1.79999995;stroke-linecap:round;stroke-miterlimit:4;stroke-dasharray:none;stroke-dashoffset:0;stroke-opacity:1"
             d="m 11126.529,3400.877 c 0.337,4.9307 0.55,9.0487 0.975,14.4902 0.968,12.4099 2.167,26.0217 3.607,40.2578 l 14.887,147.0918 1.268,63.2949 -8.879,57.8067 c 0.194,7.1517 0.23,14.2299 0.15,21.1425 -0.08,6.9127 -0.276,13.6585 -0.553,20.1446 -0.333,7.8256 -0.89,14.2388 -1.386,21.1425 6.679,4.5589 12.214,6.6153 12.214,6.6153 0,0 74.741,-11.3085 153.108,6.3711 42.405,9.5666 123.995,-11.2939 158.562,-6.836 31.54,4.0675 51.372,-0.8923 77.061,-0.998 51.831,-0.2132 103.853,5.1742 155.494,0.7363 17.333,-1.4894 48.683,-8.4474 52.098,-9.209 -0.274,-1.3676 -0.596,-2.4867 -0.852,-3.9297 -0.911,-5.1437 -1.697,-10.7687 -2.287,-16.8964 -0.59,-6.1278 -0.985,-12.7589 -1.113,-19.9121 l -1.936,-107.7833 -5.045,-87.4785 5.696,-115.7988 c 0.351,-7.1458 0.828,-13.912 1.39,-20.2812 0.563,-6.3693 1.21,-12.3416 1.905,-17.9004 0.386,-3.0921 0.806,-5.7431 1.214,-8.5762 -0.739,-0.7787 -2.019,-2.2461 -2.019,-2.2461 0,0 -145.547,24.2031 -218.949,23.5586 -30.738,-0.2699 -60.79,-10.1644 -91.5,-11.4727 -42.573,-1.8136 -108.715,14.9296 -163.141,17.8418 -61.661,3.2994 -109.305,-7.0488 -109.305,-7.0488 -10.001,-0.2727 -22.191,-7.0413 -32.664,-4.1269 z"
             id="path18530"
             transform="matrix(0.02801122,-1.6766532,1.6766532,0.02801122,-2438.9614,19725.933)"
             inkscape:connector-curvature="0" />
          <path
             sodipodi:nodetypes="caascaaasaaaaacssasccccac"
             inkscape:connector-curvature="0"
             id="path18550"
             d="m 4226.7962,146.92298 c -7.9953,5.82413 -9.8829,18.35937 -9.1631,28.22479 1.4172,19.42486 21.3814,33.42598 25.9173,52.36692 6.1727,25.77594 -2.4319,55.9065 0.8368,79.50982 4.3024,31.06848 -28.5087,23.22545 -75.6599,10.60405 32.325,34.56968 51.3777,49.39329 64.9667,81.31473 7.1488,16.7929 6.9588,36.03543 7.1429,54.2857 0.2609,25.8712 10.386,59.536 -8.5715,77.1428 -15.0355,13.96419 -19.4851,4.13682 -61.5178,2.26549 -19.9968,-0.89027 46.4726,27.51422 57.2321,50.59171 7.8502,16.83744 -0.6791,37.25668 1.4286,55.71426 2.4263,21.24812 11.7252,41.50095 12.8571,62.85718 1.3166,24.84124 -5.1383,49.49048 -7.1429,74.28569 -2.3457,29.01534 11.2568,63.49173 -5.7142,87.14287 -16.3826,22.83114 -26.7073,34.51062 -77.9253,32.16387 26.809,10.23838 64.3403,10.12414 74.5754,31.84863 11.0006,23.34904 -6.2053,69.04374 -2.7531,93.79381 3.4921,25.0358 3.1474,63.7679 -15.3256,86.4794 -8.0905,9.947 -46.36,14.0685 -35.7143,14.2858 32.1036,0.6554 55.778,39.0463 55.778,39.0463 l 11.3649,0.9536 14.1046,-314.46496 5.2739,-700.48429 c 0,0 -23.3714,-6.20679 -31.9906,0.0718 z"
             style="fill:#d7eef4;fill-opacity:1;fill-rule:evenodd;stroke:none;stroke-width:1px;stroke-linecap:butt;stroke-linejoin:miter;stroke-opacity:1" />
        </g>
        <path
           style="fill:#d7eef4;fill-opacity:1;fill-rule:evenodd;stroke:none;stroke-width:1px;stroke-linecap:butt;stroke-linejoin:miter;stroke-opacity:1"
           d="m 11129.294,1974.9045 c 2.705,3.2999 8.157,3.6865 12.395,3.1945 11.349,-1.3175 19.213,-13.3787 30.35,-15.9307 15.968,-3.659 35.322,3.8602 49.119,1.6144 18.16,-2.9575 18.305,8.8949 4.774,41.0098 19.823,-19.4405 28.251,-30.8208 46.783,-39.2359 9.748,-4.4269 21.036,-4.5841 31.737,-4.9464 15.169,-0.514 34.771,-6.9219 45.361,3.9503 8.4,8.6231 2.698,11.3698 2.188,36.0467 -0.244,11.7399 15.487,-27.639 28.871,-34.2711 9.765,-4.8389 21.86,-0.1219 32.655,-1.6156 12.428,-1.7189 24.176,-7.4554 36.685,-8.417 14.55,-1.1192 29.096,2.3224 43.666,3.152 17.049,0.9712 37.079,-7.4875 51.186,2.135 13.619,9.2897 20.612,15.1815 19.951,45.2521 5.63,-15.8651 5.039,-37.8744 17.637,-44.1805 13.54,-6.7771 40.579,2.6725 55.046,0.3053 14.634,-2.3971 41.716,-7.0856 54.861,5.7719 9.094,8.8949 3.144,43.8696 4.832,37.8553 8.905,-31.7266 24.472,-48.3725 24.472,-48.3725 l 22.409,-23.3298 -208.865,12.7835 -119.692,-1.3177 -287.624,6.572 c 0,0 -3.448,16.301 1.203,21.9744 z"
           id="path23176-6"
           inkscape:connector-curvature="0"
           sodipodi:nodetypes="aaascaaasaaaaacssasccccca" />
      </g>
    </g>
  </g>
</svg>
