<svg width="100" height="125" viewBox="0 0 100 125" fill="none" xmlns="http://www.w3.org/2000/svg">
<path fill-rule="evenodd" clip-rule="evenodd" d="M91.9997 12.0156C92.53 12.0157 93.0386 12.2264 93.4136 12.6014C93.7886 12.9764 93.9993 13.485 93.9994 14.0153V71.2953C93.9993 71.8256 93.7886 72.3342 93.4136 72.7092C93.0386 73.0842 92.53 73.2949 91.9997 73.295H79.55L81.865 85.6159C81.9391 86.0111 81.8924 86.4194 81.7309 86.7877C81.5695 87.1559 81.3008 87.4669 80.9599 87.6801C80.6191 87.8933 80.2219 87.9989 79.8201 87.983C79.4184 87.9671 79.0307 87.8304 78.7078 87.5909L59.4487 73.295H7.99969C7.46936 73.2949 6.96078 73.0842 6.58578 72.7092C6.21079 72.3342 6.00008 71.8256 6 71.2953V14.0153C6.00008 13.485 6.21079 12.9764 6.58579 12.6014C6.96078 12.2264 7.46936 12.0157 7.99969 12.0156H91.9997ZM90 16.015H9.99938V69.2956H60.1097C60.539 69.2956 60.9569 69.4337 61.3016 69.6896L76.9916 81.3361L75.1744 71.6646C75.1202 71.3758 75.1303 71.0785 75.204 70.794C75.2777 70.5095 75.4131 70.2448 75.6008 70.0186C75.7884 69.7924 76.0236 69.6104 76.2896 69.4854C76.5556 69.3604 76.8458 69.2956 77.1397 69.2956H90V16.015Z" fill="black"/>
<path fill-rule="evenodd" clip-rule="evenodd" d="M66.8421 46.1268C67.257 46.125 67.6622 46.2523 68.0016 46.491C68.3409 46.7297 68.5976 47.0681 68.7361 47.4592C68.8746 47.8503 68.8881 48.2747 68.7746 48.6738C68.6611 49.0729 68.4263 49.4268 68.1028 49.6865C57.4056 58.5223 42.5105 58.461 31.8953 49.6863C31.6884 49.5204 31.5166 49.315 31.3899 49.0821C31.2631 48.8493 31.1839 48.5935 31.1569 48.3298C31.1299 48.066 31.1556 47.7995 31.2325 47.5458C31.3094 47.292 31.436 47.0562 31.6049 46.8518C31.7738 46.6474 31.9817 46.4787 32.2164 46.3554C32.4512 46.2321 32.7081 46.1567 32.9722 46.1336C33.2363 46.1105 33.5024 46.1401 33.755 46.2208C34.0075 46.3014 34.2415 46.4315 34.4434 46.6034C43.6681 54.2287 56.253 54.2873 65.5559 46.6031C65.9151 46.2978 66.3707 46.129 66.8421 46.1268Z" fill="black"/>
<path fill-rule="evenodd" clip-rule="evenodd" d="M69.5293 29.0156C73.3713 29.0156 76.529 32.1736 76.529 36.0156C76.5337 36.2812 76.4855 36.5451 76.3871 36.7918C76.2887 37.0386 76.1422 37.2633 75.956 37.4528C75.7699 37.6422 75.5478 37.7927 75.3029 37.8954C75.0579 37.9982 74.7949 38.0511 74.5293 38.0511C74.2637 38.0511 74.0007 37.9982 73.7557 37.8954C73.5108 37.7927 73.2887 37.6422 73.1026 37.4528C72.9164 37.2633 72.7699 37.0386 72.6715 36.7918C72.5731 36.5451 72.5249 36.2812 72.5296 36.0156C72.5296 34.3376 71.2073 33.0153 69.5293 33.0153C67.8513 33.0153 66.529 34.3376 66.529 36.0156C66.5337 36.2812 66.4855 36.5451 66.3871 36.7918C66.2887 37.0386 66.1422 37.2633 65.956 37.4528C65.7699 37.6422 65.5478 37.7927 65.3029 37.8954C65.0579 37.9982 64.7949 38.0511 64.5293 38.0511C64.2637 38.0511 64.0007 37.9982 63.7557 37.8954C63.5108 37.7927 63.2887 37.6422 63.1026 37.4528C62.9164 37.2633 62.7699 37.0386 62.6715 36.7918C62.5731 36.5451 62.5249 36.2812 62.5296 36.0156C62.5296 32.1736 65.6873 29.0156 69.5293 29.0156Z" fill="black"/>
<path fill-rule="evenodd" clip-rule="evenodd" d="M30.4688 29.0156C34.3108 29.0156 37.4684 32.1736 37.4684 36.0156C37.4732 36.2812 37.4249 36.5451 37.3265 36.7918C37.2282 37.0386 37.0816 37.2633 36.8955 37.4528C36.7093 37.6422 36.4873 37.7927 36.2423 37.8954C35.9974 37.9982 35.7344 38.0511 35.4688 38.0511C35.2031 38.0511 34.9402 37.9982 34.6952 37.8954C34.4502 37.7927 34.2282 37.6422 34.042 37.4528C33.8559 37.2633 33.7093 37.0386 33.611 36.7918C33.5126 36.5451 33.4644 36.2812 33.4691 36.0156C33.4691 34.3376 32.1467 33.0153 30.4688 33.0153C28.7908 33.0153 27.4684 34.3376 27.4684 36.0156C27.4732 36.2812 27.4249 36.5451 27.3265 36.7918C27.2282 37.0386 27.0816 37.2633 26.8955 37.4528C26.7093 37.6422 26.4873 37.7927 26.2423 37.8954C25.9974 37.9982 25.7344 38.0511 25.4688 38.0511C25.2031 38.0511 24.9402 37.9982 24.6952 37.8954C24.4502 37.7927 24.2282 37.6422 24.042 37.4528C23.8559 37.2633 23.7093 37.0386 23.611 36.7918C23.5126 36.5451 23.4644 36.2812 23.4691 36.0156C23.4691 32.1736 26.6267 29.0156 30.4688 29.0156Z" fill="black"/>
</svg>
