<svg width="500" height="625" viewBox="0 0 500 625" fill="none" xmlns="http://www.w3.org/2000/svg">
<path d="M449.9 317.8C409.9 317.8 397.6 336.3 376.9 367.4C374.3 371.2 371.7 375.3 368.8 379.4C367.4 381.4 365.3 382.4 363 382.4H307.8C297.8 382.4 294.8 389.9 297.8 396.5C299.6 400.6 304 403.9 310.7 403.9H373.8L375.7 403.8C383 403.4 387.5 403.2 392.5 396.7L402.1 384.5C406.2 379.3 414.6 382.1 414.6 388.8L414.9 428.6H468V335.8C468 325.9 459.8 317.8 449.9 317.8ZM365.5 359.2C388.7 324.4 402.7 303.8 449.9 303.8C467.6 303.8 482 318.2 482 335.9V435.7C482 439.6 478.9 442.7 475 442.7H407.9C404.1 442.7 401 439.6 400.9 435.8L400.7 408.6C395.4 414.3 390.7 416.3 384.9 417.1L398.7 458C400.2 462.4 397 467.2 391.9 467.2L106.5 470C101.5 470.1 98.2 465.1 99.9 460.5L116.7 417.3C110.2 416.6 105.1 414.8 99.3 408.6L99 435.8C99 439.6 95.9 442.7 92 442.7H25C21.1 442.7 18 439.6 18 435.7V335.9C18 318.2 32.4 303.8 50.1 303.8C99.7 303.8 112.9 327 137.5 363.7L152.6 324.8C153.7 322 156.3 320.3 159.1 320.3H347.4C350.7 320.3 353.5 322.6 354.2 325.6L365.5 359.2ZM370.5 418H310.6C288.7 418 277.9 397.5 284.7 382.2C288.1 374.4 295.8 368.5 307.8 368.5H353.9L342.4 334.3H163.8L150.6 368.5H192.2C213.3 368.5 221.8 387.3 215 402.4C211 411 202.3 418 189.3 418H131.4L116.7 456L382.5 453.3L370.5 418ZM123.2 367.4C102.5 336.3 90.1 317.8 50.2 317.8C40.2 317.8 32.1 325.9 32.1 335.9V428.7H85.2L85.5 388.9C85.5 382.2 93.9 379.4 98 384.6L107.6 396.8C112.6 403.2 117.1 403.5 124.4 403.9L126.3 404H189.4C200.7 404 205.4 394.4 202.6 387.8C201.3 384.8 197.9 382.5 192.3 382.5H137C134.8 382.5 132.6 381.5 131.2 379.5C128.4 375.3 125.7 371.2 123.2 367.4ZM314.6 128.7C310.7 128.7 307.6 125.6 307.6 121.7C307.6 117.8 310.7 114.7 314.6 114.7H375.9C379.8 114.7 382.9 117.8 382.9 121.7C382.9 125.6 379.8 128.7 375.9 128.7H314.6ZM313.8 97.1C309.9 97.1 306.8 94 306.8 90.1C306.8 86.2 309.9 83.1 313.8 83.1H332.2C336.1 83.1 339.2 86.2 339.2 90.1C339.2 94 336.1 97.1 332.2 97.1H313.8ZM264.9 30H383.4C401.3 30 415.8 44.6 415.8 62.4V136.5C415.8 154.3 401.3 168.9 383.4 168.9H365.3L352.4 191.3C349.7 195.9 343 196 340.3 191.2L329.7 172.8L327.4 168.9H297.6V186.5C297.6 204.3 283 218.9 265.2 218.9H224.9L212 241.3C209.3 246 202.6 246 199.9 241.2L189.3 222.8L187 218.9H146.7C128.9 218.9 114.3 204.3 114.3 186.5V112.4C114.3 94.6 128.9 80 146.7 80H232.6V62.4C232.5 44.5 247 30 264.9 30ZM283.5 168.8H264.8C247 168.8 232.4 154.2 232.4 136.4V94H146.5C136.4 94 128.1 102.3 128.1 112.4V186.5C128.1 196.6 136.4 204.9 146.5 204.9H190.8C193.2 204.9 195.6 206.1 196.8 208.4L201.1 215.8L205.7 223.9L214.3 208.9C215.4 206.6 217.8 205 220.6 205H264.9C275 205 283.3 196.7 283.3 186.6V168.8H283.5ZM383.4 44H264.9C254.8 44 246.5 52.3 246.5 62.4V80H265.2C283 80 297.6 94.6 297.6 112.4V154.8H331.4C333.8 154.8 336.2 156 337.4 158.3L341.7 165.7L346.3 173.8L355 158.8C356.1 156.5 358.5 154.9 361.3 154.9H383.4C393.5 154.9 401.8 146.6 401.8 136.5V62.4C401.8 52.3 393.5 44 383.4 44ZM246.5 94V136.4C246.5 146.5 254.8 154.8 264.9 154.8H283.6V112.4C283.6 102.3 275.3 94 265.2 94H246.5ZM157.9 178.7C154 178.7 150.9 175.6 150.9 171.7C150.9 167.8 154 164.7 157.9 164.7H219.7C223.6 164.7 226.7 167.8 226.7 171.7C226.7 175.6 223.6 178.7 219.7 178.7H157.9ZM157.9 147.1C154 147.1 150.9 144 150.9 140.1C150.9 136.2 154 133.1 157.9 133.1H203.7C207.6 133.1 210.7 136.2 210.7 140.1C210.7 144 207.6 147.1 203.7 147.1H157.9ZM82.5 203.6C108.7 203.6 129.9 224.9 129.9 251.1C129.9 277.3 108.7 298.5 82.5 298.5C56.3 298.5 35.1 277.2 35.1 251.1C35.1 224.9 56.4 203.6 82.5 203.6ZM106.2 227.4C93.1 214.3 72 214.3 58.9 227.4C45.8 240.4 45.8 261.6 58.9 274.7C71.9 287.8 93.1 287.8 106.2 274.7C119.2 261.6 119.2 240.4 106.2 227.4ZM416 217.6C397.5 217.6 382.6 232.6 382.6 251C382.6 269.5 397.6 284.4 416 284.4C434.4 284.4 449.4 269.4 449.4 251C449.4 232.6 434.5 217.6 416 217.6ZM382.5 217.5C401 199 431 199 449.6 217.5C468.1 236 468.1 266 449.6 284.5C431.1 303 401 303 382.5 284.5C363.9 266 363.9 236 382.5 217.5Z" fill="black"/>
</svg>
