<svg width="24" height="30" viewBox="0 0 24 30" fill="none" xmlns="http://www.w3.org/2000/svg">
<g clip-path="url(#clip0_299_8029)">
<path d="M19.8535 15.3535C19.9 15.3071 19.9368 15.252 19.9619 15.1913C19.987 15.1307 20 15.0657 20 15C20 14.9344 19.987 14.8694 19.9619 14.8087C19.9368 14.748 19.9 14.6929 19.8535 14.6465L17.707 12.5H23.5C23.6326 12.5 23.7598 12.4473 23.8536 12.3536C23.9473 12.2598 24 12.1326 24 12C24 11.8674 23.9473 11.7402 23.8536 11.6464C23.7598 11.5527 23.6326 11.5 23.5 11.5H17.707L19.8535 9.35352C19.9446 9.25922 19.995 9.13292 19.9938 9.00182C19.9927 8.87072 19.9401 8.74531 19.8474 8.65261C19.7547 8.55991 19.6293 8.50732 19.4982 8.50618C19.3671 8.50504 19.2408 8.55544 19.1465 8.64652L16.1465 11.6465C16.1001 11.6929 16.0632 11.748 16.0381 11.8087C16.013 11.8694 16 11.9344 16 12C16 12.0657 16.013 12.1307 16.0381 12.1913C16.0632 12.252 16.1001 12.3071 16.1465 12.3535L19.1465 15.3535C19.1929 15.4 19.248 15.4368 19.3087 15.4619C19.3693 15.4871 19.4343 15.5 19.5 15.5C19.5657 15.5 19.6307 15.4871 19.6913 15.4619C19.752 15.4368 19.8071 15.4 19.8535 15.3535ZM13 4H5C4.46957 4 3.96086 4.21071 3.58579 4.58579C3.21071 4.96086 3 5.46957 3 6V19C3 19.2652 3.10536 19.5196 3.29289 19.7071C3.48043 19.8946 3.73478 20 4 20H14C14.2652 20 14.5196 19.8946 14.7071 19.7071C14.8946 19.5196 15 19.2652 15 19V6C15 5.46957 14.7893 4.96086 14.4142 4.58579C14.0391 4.21071 13.5304 4 13 4ZM14 19H8V16C8 15.7348 7.89464 15.4804 7.70711 15.2929C7.51957 15.1054 7.26522 15 7 15C6.73478 15 6.48043 15.1054 6.29289 15.2929C6.10536 15.4804 6 15.7348 6 16V19H4V6C4.0003 5.73488 4.10576 5.4807 4.29323 5.29323C4.4807 5.10576 4.73488 5.0003 5 5H13C13.2651 5.0003 13.5193 5.10576 13.7068 5.29323C13.8942 5.4807 13.9997 5.73488 14 6V19ZM8 8C8 8.19778 7.94135 8.39112 7.83147 8.55557C7.72159 8.72002 7.56541 8.84819 7.38268 8.92388C7.19996 8.99957 6.99889 9.01937 6.80491 8.98079C6.61093 8.9422 6.43275 8.84696 6.29289 8.70711C6.15304 8.56725 6.0578 8.38907 6.01921 8.19509C5.98063 8.00111 6.00043 7.80004 6.07612 7.61732C6.15181 7.43459 6.27998 7.27841 6.44443 7.16853C6.60888 7.05865 6.80222 7 7 7C7.26522 7 7.51957 7.10536 7.70711 7.29289C7.89464 7.48043 8 7.73478 8 8ZM12 8C12 8.19778 11.9414 8.39112 11.8315 8.55557C11.7216 8.72002 11.5654 8.84819 11.3827 8.92388C11.2 8.99957 10.9989 9.01937 10.8049 8.98079C10.6109 8.9422 10.4327 8.84696 10.2929 8.70711C10.153 8.56725 10.0578 8.38907 10.0192 8.19509C9.98063 8.00111 10.0004 7.80004 10.0761 7.61732C10.1518 7.43459 10.28 7.27841 10.4444 7.16853C10.6089 7.05865 10.8022 7 11 7C11.2652 7 11.5196 7.10536 11.7071 7.29289C11.8946 7.48043 12 7.73478 12 8ZM8 12C8 12.1978 7.94135 12.3911 7.83147 12.5556C7.72159 12.72 7.56541 12.8482 7.38268 12.9239C7.19996 12.9996 6.99889 13.0194 6.80491 12.9808C6.61093 12.9422 6.43275 12.847 6.29289 12.7071C6.15304 12.5673 6.0578 12.3891 6.01921 12.1951C5.98063 12.0011 6.00043 11.8 6.07612 11.6173C6.15181 11.4346 6.27998 11.2784 6.44443 11.1685C6.60888 11.0586 6.80222 11 7 11C7.26522 11 7.51957 11.1054 7.70711 11.2929C7.89464 11.4804 8 11.7348 8 12ZM12 12C12 12.1978 11.9414 12.3911 11.8315 12.5556C11.7216 12.72 11.5654 12.8482 11.3827 12.9239C11.2 12.9996 10.9989 13.0194 10.8049 12.9808C10.6109 12.9422 10.4327 12.847 10.2929 12.7071C10.153 12.5673 10.0578 12.3891 10.0192 12.1951C9.98063 12.0011 10.0004 11.8 10.0761 11.6173C10.1518 11.4346 10.28 11.2784 10.4444 11.1685C10.6089 11.0586 10.8022 11 11 11C11.2652 11 11.5196 11.1054 11.7071 11.2929C11.8946 11.4804 12 11.7348 12 12ZM12 16C12 16.1978 11.9414 16.3911 11.8315 16.5556C11.7216 16.72 11.5654 16.8482 11.3827 16.9239C11.2 16.9996 10.9989 17.0194 10.8049 16.9808C10.6109 16.9422 10.4327 16.847 10.2929 16.7071C10.153 16.5673 10.0578 16.3891 10.0192 16.1951C9.98063 16.0011 10.0004 15.8 10.0761 15.6173C10.1518 15.4346 10.28 15.2784 10.4444 15.1685C10.6089 15.0586 10.8022 15 11 15C11.2652 15 11.5196 15.1054 11.7071 15.2929C11.8946 15.4804 12 15.7348 12 16Z" fill="black"/>
</g>
<defs>
<clipPath id="clip0_299_8029">
<rect width="24" height="30" fill="white"/>
</clipPath>
</defs>
</svg>
